<svg width="100" height="101" viewBox="0 0 100 101" fill="none" xmlns="http://www.w3.org/2000/svg">
<circle opacity="0.5" cx="50" cy="50.4453" r="50" fill="url(#paint0_linear_504_3)"/>
<path d="M76.7542 34.3873C76.7202 34.2614 76.6615 34.1435 76.5816 34.0401C76.5016 33.9367 76.4019 33.85 76.2881 33.7849C76.1744 33.7198 76.0488 33.6775 75.9186 33.6605C75.7884 33.6435 75.656 33.6522 75.5292 33.6859L69.7527 35.2213C69.6258 35.255 69.5069 35.3132 69.4026 35.3925C69.2984 35.4719 69.211 35.5708 69.1453 35.6836C69.0797 35.7965 69.0371 35.921 69.0199 36.0502C69.0028 36.1794 69.0115 36.3107 69.0455 36.4366L70.5933 42.1671C70.6273 42.2929 70.6859 42.4109 70.7659 42.5143C70.8458 42.6177 70.9456 42.7044 71.0593 42.7696C71.1731 42.8347 71.2987 42.877 71.4289 42.894C71.5591 42.9109 71.6914 42.9023 71.8183 42.8686L77.5949 41.3332C77.7218 41.2994 77.8408 41.2413 77.945 41.1619C78.0492 41.0826 78.1366 40.9837 78.2023 40.8709C78.2679 40.758 78.3106 40.6334 78.3277 40.5042C78.3448 40.3751 78.3361 40.2438 78.3021 40.1179L76.7542 34.3873ZM72.2667 40.6952L71.2365 36.8811L75.0811 35.8591L76.1114 39.6731L72.2667 40.6952ZM31.0054 78.8622C31.3824 79.2356 31.8934 79.4453 32.4261 79.4453C32.9589 79.4453 33.4699 79.2356 33.8469 78.8622L38.4144 74.3313C38.7906 73.9572 39.0019 73.4503 39.0019 72.9219C39.0019 72.3935 38.7906 71.8866 38.4144 71.5125L37.5045 70.6099L41.5217 67.9532C44.0751 66.6533 46.2126 65.5085 47.8751 64.55C48.0087 64.473 48.1225 64.3663 48.2075 64.2383C49.4886 62.2855 50.5115 60.1776 51.251 57.9662L51.2692 58.2432C51.3256 59.3386 51.704 60.1515 52.3942 60.6594C52.8765 61.0144 53.4837 61.1926 54.2091 61.1926C54.6916 61.1864 55.1716 61.122 55.6385 61.0008C55.8361 60.952 56.014 60.8444 56.1484 60.6926C56.2828 60.5407 56.3672 60.3518 56.3904 60.151C56.5052 59.1568 56.5357 57.3037 56.4821 54.5235C57.3446 55.4443 58.1185 55.8768 58.8705 55.8768C58.9095 55.8768 58.9487 55.8755 58.9876 55.8732C59.5279 55.8411 60.2838 55.5694 60.817 54.4579C60.8859 54.3144 60.919 54.1566 60.9135 53.9978C60.851 52.1667 60.8309 50.3166 60.8538 48.4754L80.2598 43.6232L80.2742 43.6195C80.8705 43.4604 81.3788 43.0731 81.6876 42.5426C81.9963 42.0121 82.0804 41.3818 81.9212 40.7899L79.2057 30.7375L78.1765 26.9268V26.9261V26.9253L77.1582 23.157C76.9976 22.5656 76.6071 22.0615 76.0724 21.7552C75.5376 21.449 74.9023 21.3656 74.3057 21.5234L45.0376 29.3026C44.4443 29.4602 43.9351 29.8385 43.6156 30.3588C43.4503 30.6209 43.3411 30.9138 43.2948 31.2195C43.2484 31.5252 43.2659 31.8371 43.3462 32.1358L44.7631 37.3811L38.0583 38.607C32.4109 39.3406 31.4541 41.799 31.6474 43.7337C32.042 47.6908 29.7864 56.294 26.9424 60.1314L25.9965 59.1931C25.6194 58.8198 25.1084 58.6102 24.5757 58.6102C24.0429 58.6102 23.532 58.8198 23.1549 59.1931L18.5875 63.7249C18.2113 64.099 18 64.6059 18 65.1343C18 65.6627 18.2113 66.1696 18.5875 66.5437L31.0054 78.8622ZM54.4606 59.1977C54.0596 59.2349 53.7547 59.1905 53.5856 59.0664C53.3512 58.8939 53.2825 58.4656 53.2661 58.1363C53.2661 58.131 53.2661 58.1258 53.2652 58.1206L53.0756 55.2414C53.5344 54.7064 53.9964 54.1731 54.4616 53.6418C54.5232 56.1847 54.5226 58.0443 54.4606 59.1977ZM58.8366 53.8826C58.6687 53.8276 57.9546 53.4771 56.5366 51.3054C57.3021 50.4565 58.074 49.6141 58.8521 48.7783C58.836 50.4511 58.8521 52.1294 58.9051 53.7939C58.8848 53.8253 58.8619 53.8549 58.8366 53.8826ZM56.5531 41.7212C56.9802 41.3146 57.5503 41.0892 58.1423 41.0928C58.7342 41.0964 59.3014 41.3288 59.7235 41.7405C60.1455 42.1523 60.3892 42.7111 60.4026 43.2981C60.4161 43.8852 60.1984 44.4544 59.7957 44.8848C59.4468 45.247 59.0988 45.6113 58.752 45.9778C57.4621 45.3152 56.3029 44.3098 55.302 42.9847L56.5531 41.7212ZM79.9552 41.5502C79.9128 41.6239 79.8431 41.6782 79.7608 41.7016L61.1458 46.3561C61.1785 46.322 61.211 46.2875 61.2436 46.2536C62.0087 45.4462 62.4248 44.3739 62.403 43.266C62.3811 42.1582 61.9231 41.1028 61.1268 40.3257C60.3305 39.5486 59.2593 39.1116 58.1423 39.1081C57.0253 39.1045 55.9513 39.5349 55.1501 40.3069C55.148 40.309 55.1461 40.3114 55.144 40.3135C55.1419 40.3156 55.1395 40.3175 55.1374 40.3196L49.2366 46.2778L48.2385 42.5825C48.2109 42.3692 48.1692 42.1579 48.1135 41.9501C48.0878 41.8549 48.048 41.7641 47.9953 41.6806L47.587 40.1687L77.5328 32.2087L79.9892 41.3029C80.0003 41.3443 80.0029 41.3875 79.9971 41.4299C79.9913 41.4723 79.977 41.5132 79.9552 41.5502ZM77.0149 30.2925L47.0691 38.2524L46.5572 36.3572L76.5029 28.3973L77.0149 30.2925ZM47.4001 47.1424L47.5876 47.8386C47.5948 47.8655 47.6038 47.8913 47.6126 47.9169L46.5532 48.9867C46.8454 48.4064 47.139 47.7848 47.4001 47.1424ZM45.3208 31.3965C45.3736 31.3102 45.4574 31.247 45.5553 31.2195L74.8233 23.4399C74.9076 23.4186 74.9968 23.4308 75.0721 23.474C75.1474 23.5171 75.2027 23.5876 75.2263 23.6706L75.9853 26.4809L46.0394 34.4407L45.2784 31.6227C45.27 31.5841 45.2694 31.5442 45.2766 31.5053C45.2839 31.4665 45.2989 31.4295 45.3208 31.3965ZM33.6375 43.5392C33.5799 42.9623 33.4045 41.2068 38.3419 40.5719C38.3597 40.5695 38.3772 40.5668 38.3947 40.5636L45.2822 39.3045L46.2684 42.9563C46.4658 44.91 45.0594 47.5658 44.1022 49.3724C43.8137 49.9167 43.5647 50.3869 43.3823 50.7881C43.3137 50.9392 43.2843 51.1049 43.2968 51.2701C43.3094 51.4353 43.3634 51.5948 43.454 51.734C43.5447 51.8732 43.669 51.9876 43.8157 52.0669C43.9624 52.1461 44.1268 52.1877 44.2938 52.1877C44.3231 52.1877 44.3524 52.1863 44.3813 52.1839C44.9537 52.1343 45.5332 52.0663 46.1038 51.9835C46.3197 51.9521 46.5194 51.8515 46.6723 51.6972L53.8849 44.4139C54.8316 45.642 56.0052 46.6803 57.343 47.4735C54.7815 50.2241 52.2805 53.0562 49.8818 55.9254C49.7957 56.0284 49.7314 56.1477 49.693 56.2761C49.0064 58.6323 47.9865 60.8801 46.6638 62.9524C45.0499 63.8758 42.9969 64.9721 40.5567 66.2136C40.5228 66.2308 40.4899 66.2499 40.4583 66.2709L36.0625 69.1791L28.3694 61.5477C31.59 57.3962 34.0818 47.9905 33.6375 43.5392ZM20.002 65.1278L24.5695 60.5968H24.582L37 72.9155V72.9279L32.4325 77.4589H32.42L20.0012 65.1285L20.002 65.1278Z" fill="white"/>
<defs>
<linearGradient id="paint0_linear_504_3" x1="-3.55051e-07" y1="16.0876" x2="109.513" y2="51.58" gradientUnits="userSpaceOnUse">
<stop stop-color="#0539D9"/>
<stop offset="0.518734" stop-color="#0027A0"/>
<stop offset="1" stop-color="#6E00A2"/>
</linearGradient>
</defs>
</svg>
