<svg width="160" height="161" viewBox="0 0 160 161" fill="none" xmlns="http://www.w3.org/2000/svg">
<circle opacity="0.5" cx="80" cy="80.3457" r="80" fill="url(#paint0_linear_209_5)"/>
<path d="M120.131 56.0652C120.08 55.8749 119.992 55.6965 119.872 55.5403C119.752 55.384 119.603 55.2528 119.432 55.1544C119.261 55.0559 119.073 54.992 118.878 54.9663C118.682 54.9406 118.484 54.9537 118.294 55.0047L109.629 57.3264C109.438 57.3773 109.26 57.4653 109.104 57.5852C108.947 57.7052 108.816 57.8547 108.718 58.0254C108.619 58.196 108.555 58.3844 108.53 58.5797C108.504 58.7751 108.517 58.9736 108.568 59.1639L110.89 67.8288C110.941 68.0191 111.029 68.1975 111.149 68.3538C111.269 68.5101 111.418 68.6413 111.589 68.7398C111.759 68.8383 111.948 68.9022 112.143 68.9279C112.338 68.9536 112.537 68.9405 112.727 68.8895L121.392 66.5679C121.582 66.5169 121.761 66.4289 121.917 66.309C122.074 66.189 122.205 66.0395 122.303 65.8688C122.402 65.6982 122.466 65.5098 122.491 65.3145C122.517 65.1191 122.504 64.9207 122.453 64.7304L120.131 56.0652ZM113.4 65.6032L111.855 59.836L117.621 58.2907L119.167 64.0578L113.4 65.6032ZM51.5081 123.314C52.0737 123.879 52.8401 124.196 53.6392 124.196C54.4384 124.196 55.2048 123.879 55.7704 123.314L62.6216 116.463C63.186 115.898 63.5029 115.131 63.5029 114.332C63.5029 113.533 63.186 112.767 62.6216 112.201L61.2568 110.836L67.2825 106.819C71.1126 104.854 74.3188 103.123 76.8126 101.673C77.013 101.557 77.1836 101.395 77.3111 101.202C79.2328 98.2493 80.7672 95.0619 81.8764 91.7182L81.9037 92.1371C81.9883 93.7932 82.5559 95.0225 83.5912 95.7905C84.3146 96.3273 85.2255 96.5967 86.3136 96.5967C87.0374 96.5873 87.7573 96.4899 88.4576 96.3067C88.7541 96.2329 89.021 96.0702 89.2225 95.8406C89.4241 95.611 89.5507 95.3253 89.5854 95.0217C89.7577 93.5184 89.8035 90.7164 89.7231 86.5126C91.0168 87.9048 92.1776 88.5588 93.3056 88.5588C93.3641 88.5588 93.423 88.5569 93.4813 88.5534C94.2917 88.5048 95.4255 88.094 96.2254 86.4134C96.3287 86.1964 96.3784 85.9578 96.3701 85.7176C96.2764 82.949 96.2462 80.1515 96.2805 77.3675L125.389 70.0306L125.411 70.025C126.305 69.7844 127.068 69.1987 127.531 68.3966C127.994 67.5945 128.12 66.6414 127.882 65.7464L123.808 50.5465L122.264 44.7845V44.7834V44.7822L120.737 39.0843C120.496 38.19 119.91 37.4277 119.108 36.9647C118.306 36.5016 117.353 36.3756 116.458 36.6142L72.5563 48.3768C71.6664 48.6152 70.9026 49.1871 70.4233 49.9739C70.1754 50.3702 70.0116 50.8132 69.9421 51.2754C69.8726 51.7376 69.8988 52.2092 70.0192 52.6608L72.1446 60.592L62.0874 62.4457C53.6164 63.5549 52.1812 67.2723 52.4711 70.1977C53.0631 76.181 49.6796 89.1897 45.4136 94.9921L43.9948 93.5733C43.4292 93.0089 42.6627 92.6919 41.8636 92.6919C41.0645 92.6919 40.298 93.0089 39.7324 93.5733L32.8813 100.426C32.317 100.991 32.0001 101.758 32.0001 102.557C32.0001 103.356 32.317 104.122 32.8813 104.688L51.5081 123.314ZM86.6908 93.5802C86.0893 93.6365 85.632 93.5694 85.3783 93.3817C85.0267 93.1209 84.9236 92.4732 84.8991 91.9754C84.8991 91.9674 84.8991 91.9595 84.8977 91.9516L84.6133 87.5981C85.3014 86.7891 85.9944 85.9828 86.6923 85.1793C86.7847 89.0244 86.7838 91.8363 86.6908 93.5802ZM93.2548 85.5434C93.003 85.4604 91.9318 84.9303 89.8048 81.6466C90.9531 80.363 92.1108 79.0892 93.2781 77.8254C93.2539 80.3547 93.2781 82.8926 93.3576 85.4094C93.327 85.4568 93.2927 85.5016 93.2548 85.5434ZM89.8296 67.1545C90.4703 66.5398 91.3253 66.1989 92.2133 66.2044C93.1012 66.2099 93.952 66.5612 94.5851 67.1839C95.2181 67.8065 95.5836 68.6514 95.6038 69.5391C95.6241 70.4268 95.2975 71.2874 94.6935 71.9382C94.17 72.4859 93.6481 73.0367 93.1279 73.5909C91.1931 72.5891 89.4542 71.0688 87.9529 69.0652L89.8296 67.1545ZM124.933 66.896C124.869 67.0074 124.764 67.0896 124.641 67.1249L96.7185 74.1629C96.7676 74.1114 96.8164 74.0592 96.8653 74.0079C98.0129 72.7871 98.637 71.1656 98.6043 69.4905C98.5715 67.8153 97.8845 66.2195 96.6901 65.0445C95.4957 63.8695 93.8888 63.2087 92.2133 63.2034C90.5379 63.1981 88.9269 63.8487 87.7251 65.0161C87.7219 65.0193 87.7191 65.0229 87.7159 65.0261C87.7127 65.0292 87.7091 65.032 87.7059 65.0352L78.8548 74.0444L77.3576 68.4569C77.3163 68.1344 77.2537 67.8149 77.1701 67.5007C77.1317 67.3568 77.0719 67.2195 76.9929 67.0932L76.3804 64.8071L121.299 52.771L124.984 66.5221C125 66.5847 125.004 66.65 124.995 66.7141C124.987 66.7783 124.965 66.8401 124.933 66.896ZM120.522 49.8736L75.6036 61.9096L74.8357 59.0439L119.754 47.008L120.522 49.8736ZM76.1001 75.3519L76.3813 76.4045C76.3922 76.4452 76.4057 76.4842 76.4188 76.523L74.8297 78.1406C75.2681 77.2631 75.7084 76.3231 76.1001 75.3519ZM72.9812 51.5429C73.0604 51.4125 73.1861 51.3169 73.3329 51.2754L117.235 39.512C117.361 39.4799 117.495 39.4984 117.608 39.5635C117.721 39.6287 117.804 39.7354 117.839 39.8609L118.978 44.1102L74.0591 56.146L72.9176 51.8849C72.9049 51.8266 72.904 51.7662 72.9149 51.7075C72.9258 51.6488 72.9484 51.5928 72.9812 51.5429ZM55.4563 69.9035C55.3699 69.0312 55.1068 66.3768 62.5129 65.4168C62.5395 65.4132 62.5657 65.4091 62.592 65.4042L72.9232 63.5004L74.4026 69.0222C74.6987 71.9763 72.5891 75.992 71.1532 78.7237C70.7205 79.5468 70.347 80.2578 70.0734 80.8644C69.9705 81.0928 69.9264 81.3434 69.9452 81.5932C69.964 81.8431 70.0451 82.0842 70.181 82.2947C70.317 82.5051 70.5035 82.6782 70.7235 82.798C70.9436 82.9178 71.1901 82.9806 71.4407 82.9807C71.4846 82.9807 71.5286 82.9786 71.5719 82.9749C72.4305 82.8999 73.2997 82.7971 74.1557 82.6719C74.4795 82.6244 74.779 82.4724 75.0084 82.2389L85.8272 71.2261C87.2473 73.0832 89.0076 74.6532 91.0144 75.8525C87.1721 80.0116 83.4206 84.2939 79.8227 88.6323C79.6934 88.7881 79.597 88.9685 79.5394 89.1626C78.5095 92.7254 76.9797 96.1242 74.9957 99.2576C72.5749 100.654 69.4954 102.312 65.835 104.189C65.7842 104.215 65.7349 104.244 65.6874 104.275L59.0938 108.673L47.5541 97.1336C52.3851 90.8562 56.1227 76.6342 55.4563 69.9035ZM35.0031 102.547L41.8543 95.6958H41.8731L60.5001 114.322V114.341L53.6488 121.192H53.6301L35.0019 102.548L35.0031 102.547Z" fill="white"/>
<defs>
<linearGradient id="paint0_linear_209_5" x1="-5.68082e-07" y1="25.3733" x2="175.221" y2="82.1612" gradientUnits="userSpaceOnUse">
<stop stop-color="#0539D9"/>
<stop offset="0.518734" stop-color="#0027A0"/>
<stop offset="1" stop-color="#6E00A2"/>
</linearGradient>
</defs>
</svg>
