<svg width="100" height="100" viewBox="0 0 100 100" fill="none" xmlns="http://www.w3.org/2000/svg">
<circle opacity="0.5" cx="50" cy="50" r="50" fill="url(#paint0_linear_504_5)"/>
<path d="M56.4395 52.293C56.1605 52.479 56 52.736 56 53C56 53.263 56.1605 53.521 56.4395 53.7069C56.7185 53.8929 57.1055 54 57.5 54C57.8945 54 58.2815 53.893 58.5605 53.7069C58.8395 53.521 59 53.263 59 53C59 52.7359 58.8395 52.479 58.5605 52.293C58.2815 52.106 57.8945 52 57.5 52C57.1055 52 56.7185 52.106 56.4395 52.293Z" fill="white"/>
<path d="M71.5605 42.5604C71.8395 42.2815 72 41.8945 72 41.5C72 41.1039 71.8395 40.7169 71.5605 40.4395C71.2815 40.1605 70.8945 40 70.5 40C70.104 40 69.7185 40.1604 69.4395 40.4395C69.159 40.7185 69 41.104 69 41.5C69 41.8945 69.159 42.2815 69.4395 42.5604C69.7185 42.8394 70.104 43 70.5 43C70.8945 43 71.2815 42.8395 71.5605 42.5604Z" fill="white"/>
<path d="M31.5 41.0858V39.5974H32.8566C33.3917 39.9631 33.941 40.3091 34.5 40.6395V50.7472C34.5 52.5407 35.9706 54 37.7781 54H51.625C52.3154 54 52.875 53.4446 52.875 52.7597C52.875 52.0747 52.3154 51.5193 51.625 51.5193H42.3888C41.903 48.8018 39.7388 46.6543 37.0001 46.1722V41.9646C39.4471 43.1161 42.052 43.9433 44.7121 44.4022L49.2275 45.1813C49.4764 45.2242 49.7245 45.245 49.97 45.245C50.3141 45.245 50.6526 45.2031 50.9799 45.1247C52.2932 47.263 54.6666 48.6263 57.2501 48.6263C61.2944 48.6263 64.5846 45.3615 64.5846 41.3485C64.5846 37.3355 61.2943 34.0707 57.25 34.0707C54.9625 34.0707 52.8445 35.1178 51.4686 36.8685L45.6316 33.6655C45.2035 33.4304 44.9375 32.9829 44.9375 32.4976C44.9375 31.7617 45.5408 31.1631 46.2824 31.1631H72.1114C72.5971 33.8805 74.7614 36.0281 77.5 36.5102V46.1722C74.7614 46.6542 72.5971 48.8017 72.1114 51.5193H62.875C62.1846 51.5193 61.625 52.0747 61.625 52.7597C61.625 53.4446 62.1846 54 62.875 54H76.7219C78.5294 54 80 52.5407 80 50.7472V31.9353C80 30.1417 78.5294 28.6824 76.7219 28.6824H60.301L54.0588 23.9062C52.4393 22.667 50.421 21.9845 48.3757 21.9845H31.5V21.2403C31.5 20.5554 30.9404 20 30.25 20H19.25C18.5596 20 18 20.5554 18 21.2403V41.0858C18 41.7707 18.5596 42.3261 19.25 42.3261H30.25C30.9404 42.3261 31.5 41.7707 31.5 41.0858ZM39.8255 51.5192H37.7781C37.349 51.5192 37 51.1729 37 50.7471V48.7155C38.3571 49.1095 39.4285 50.1726 39.8255 51.5192ZM57.25 36.5514C59.9157 36.5514 62.0845 38.7034 62.0845 41.3484C62.0845 43.9935 59.9157 46.1455 57.25 46.1455C55.561 46.1455 54.0086 45.2613 53.1386 43.872C53.5153 43.4701 53.8194 42.992 54.0224 42.4519C54.5436 41.065 54.2834 39.539 53.4395 38.3989C54.3467 37.244 55.7417 36.5514 57.25 36.5514ZM76.7219 51.5192H74.6745C75.0715 50.1726 76.1429 49.1095 77.5 48.7155V50.7471C77.5 51.1729 77.151 51.5192 76.7219 51.5192ZM77.5 31.9353V33.9667C76.1429 33.5728 75.0715 32.5097 74.6745 31.1631H76.7219C77.151 31.1631 77.5 31.5095 77.5 31.9353ZM48.3757 24.4652C49.8715 24.4652 51.3475 24.9643 52.532 25.8707L56.2069 28.6824H46.2824C44.1624 28.6824 42.4375 30.3938 42.4375 32.4976C42.4375 33.8851 43.1978 35.1644 44.4215 35.8362L50.8525 39.3653C51.6379 39.7963 51.9935 40.7505 51.68 41.5849C51.3727 42.4019 50.5214 42.8867 49.6556 42.7372L45.1402 41.9581C41.1436 41.2686 37.282 39.6736 33.973 37.3454C33.7617 37.1967 33.509 37.1168 33.25 37.1168H31.5V24.4652H48.3757ZM29 39.8455H20.5V22.4807H29V39.8455Z" fill="white"/>
<path d="M80.7554 61.1335H69.8024C69.1738 61.1335 68.6555 61.6096 68.5711 62.2275C66.9574 61.4215 65.1879 61 63.3596 61C59.845 61 56.5305 62.5735 54.2661 65.3169L53.0136 66.8345H45.7341C43.3489 66.8345 41.4084 68.8151 41.4084 71.2495C41.4084 71.6426 41.4596 72.0234 41.5545 72.3862C40.4074 71.9016 39.3539 71.186 38.4497 70.2628L32.3992 64.0856C30.7171 62.3683 27.9737 62.3616 26.2837 64.0706C25.4587 64.9048 25.0028 66.0173 25 67.2027C24.9973 68.3882 25.4481 69.5026 26.2694 70.3411L33.0312 77.2426C36.3374 80.6172 40.7334 82.4756 45.4092 82.4756H68.5578V82.7296C68.5578 83.4311 69.115 84 69.8024 84H80.7554C81.4428 84 82 83.4311 82 82.7296V62.4039C82 61.7024 81.4428 61.1335 80.7554 61.1335ZM45.4092 79.9348C41.3983 79.9348 37.6275 78.3407 34.7915 75.446L28.0297 68.5445C27.6801 68.1877 27.4882 67.7133 27.4894 67.2088C27.4906 66.704 27.6846 66.2306 28.0358 65.8755C28.7551 65.148 29.9229 65.1508 30.6389 65.882L36.6894 72.0592C38.9667 74.3843 41.9948 75.6647 45.2159 75.6647H59.2875C59.9749 75.6647 60.5322 75.0958 60.5322 74.3943C60.5322 73.6928 59.9749 73.1239 59.2875 73.1239H45.7341C44.7215 73.1239 43.8977 72.2831 43.8977 71.2495C43.8977 70.216 44.7215 69.3752 45.7341 69.3752H53.5926C53.9597 69.3752 54.308 69.2098 54.5445 68.9232L56.17 66.9537C57.9603 64.7847 60.5808 63.5406 63.3597 63.5406C65.2245 63.5406 67.013 64.0928 68.5578 65.1411V79.9348H45.4092ZM79.5107 81.4593H71.0471V63.6742H79.5107V81.4593Z" fill="white"/>
<defs>
<linearGradient id="paint0_linear_504_5" x1="-3.55051e-07" y1="15.6422" x2="109.513" y2="51.1347" gradientUnits="userSpaceOnUse">
<stop stop-color="#0539D9"/>
<stop offset="0.518734" stop-color="#0027A0"/>
<stop offset="1" stop-color="#6E00A2"/>
</linearGradient>
</defs>
</svg>
