<svg width="161" height="161" viewBox="0 0 161 161" fill="none" xmlns="http://www.w3.org/2000/svg">
<circle opacity="0.5" cx="80.5" cy="80.3457" r="80" fill="url(#paint0_linear_209_4)"/>
<g clip-path="url(#clip0_209_4)">
<path d="M90.0494 80.5425C89.7006 80.8913 89.5 81.3732 89.5 81.8682C89.5 82.3613 89.7006 82.845 90.0494 83.1936C90.3981 83.5423 90.8819 83.7432 91.375 83.7432C91.8681 83.7432 92.3519 83.5425 92.7006 83.1936C93.0494 82.845 93.25 82.3613 93.25 81.8682C93.25 81.373 93.0494 80.8913 92.7006 80.5425C92.3519 80.1919 91.8681 79.9932 91.375 79.9932C90.8819 79.9932 90.3981 80.1919 90.0494 80.5425Z" fill="white"/>
<path d="M112.197 65.9436C112.546 65.595 112.746 65.1113 112.746 64.6182C112.746 64.123 112.546 63.6392 112.197 63.2925C111.848 62.9438 111.364 62.7432 110.871 62.7432C110.376 62.7432 109.894 62.9436 109.546 63.2925C109.195 63.6413 108.996 64.1232 108.996 64.6182C108.996 65.1113 109.195 65.595 109.546 65.9436C109.894 66.2924 110.376 66.4932 110.871 66.4932C111.364 66.4932 111.848 66.2925 112.197 65.9436Z" fill="white"/>
<path d="M52.75 64.2207V61.9707H54.7849C55.5876 62.5235 56.4115 63.0466 57.25 63.5461V78.8256C57.25 81.5369 59.4559 83.7428 62.1672 83.7428H82.9375C83.9731 83.7428 84.8125 82.9032 84.8125 81.8678C84.8125 80.8325 83.9731 79.9928 82.9375 79.9928H69.0831C68.3545 75.8849 65.1081 72.6385 61.0002 71.9097V65.5491C64.6707 67.2899 68.578 68.5403 72.5682 69.2341L79.3413 70.4118C79.7146 70.4766 80.0867 70.5081 80.455 70.5081C80.9712 70.5081 81.4789 70.4448 81.9698 70.3263C83.9399 73.5586 87.4999 75.6196 91.3752 75.6196C97.4416 75.6196 102.377 70.6842 102.377 64.6178C102.377 58.5515 97.4414 53.6161 91.375 53.6161C87.9438 53.6161 84.7667 55.199 82.7029 57.8455L73.9474 53.0035C73.3052 52.6482 72.9062 51.9717 72.9062 51.238C72.9062 50.1256 73.8111 49.2207 74.9236 49.2207H113.667C114.396 53.3286 117.642 56.575 121.75 57.3038V71.9097C117.642 72.6383 114.396 75.8847 113.667 79.9928H99.8125C98.7769 79.9928 97.9375 80.8325 97.9375 81.8678C97.9375 82.9032 98.7769 83.7428 99.8125 83.7428H120.583C123.294 83.7428 125.5 81.5369 125.5 78.8256V50.3881C125.5 47.6766 123.294 45.4707 120.583 45.4707H95.9515L86.5881 38.2506C84.1589 36.3773 81.1315 35.3457 78.0636 35.3457H52.75V34.2207C52.75 33.1853 51.9106 32.3457 50.875 32.3457H34.375C33.3394 32.3457 32.5 33.1853 32.5 34.2207V64.2207C32.5 65.2561 33.3394 66.0957 34.375 66.0957H50.875C51.9106 66.0957 52.75 65.2561 52.75 64.2207V64.2207ZM65.2383 79.9926H62.1672C61.5235 79.9926 61 79.4691 61 78.8255V75.7544C63.0357 76.3499 64.6428 77.957 65.2383 79.9926ZM91.375 57.3661C95.3736 57.3661 98.6267 60.6192 98.6267 64.6176C98.6267 68.6163 95.3736 71.8694 91.375 71.8694C88.8415 71.8694 86.5129 70.5327 85.2079 68.4325C85.7729 67.825 86.2291 67.1022 86.5336 66.2858C87.3154 64.1892 86.9251 61.8824 85.6592 60.1589C87.0201 58.4131 89.1126 57.3661 91.375 57.3661V57.3661ZM120.583 79.9926H117.512C118.107 77.957 119.714 76.3499 121.75 75.7544V78.8255C121.75 79.4691 121.226 79.9926 120.583 79.9926V79.9926ZM121.75 50.3881V53.459C119.714 52.8635 118.107 51.2564 117.512 49.2207H120.583C121.226 49.2207 121.75 49.7444 121.75 50.3881V50.3881ZM78.0636 39.0957C80.3072 39.0957 82.5213 39.8502 84.298 41.2203L89.8103 45.4707H74.9236C71.7436 45.4707 69.1562 48.0578 69.1562 51.238C69.1562 53.3356 70.2966 55.2695 72.1322 56.285L81.7788 61.6199C82.9568 62.2715 83.4903 63.7139 83.02 64.9752C82.5591 66.2103 81.2821 66.943 79.9834 66.7171L73.2104 65.5394C67.2154 64.4971 61.423 62.0858 56.4595 58.5665C56.1426 58.3416 55.7635 58.2209 55.375 58.2209H52.75V39.0957H78.0636ZM49 62.3457H36.25V36.0957H49V62.3457Z" fill="white"/>
<path d="M126.625 94.5955H110.125C109.178 94.5955 108.397 95.2982 108.27 96.2102C105.839 95.0206 103.173 94.3984 100.419 94.3984C95.1246 94.3984 90.1315 96.7208 86.7203 100.77L84.8335 103.01H73.8674C70.2741 103.01 67.3508 105.933 67.3508 109.526C67.3508 110.106 67.428 110.669 67.5709 111.204C65.8429 110.489 64.2559 109.433 62.8937 108.07L53.779 98.9526C51.2449 96.418 47.1122 96.4081 44.5663 98.9305C43.3234 100.162 42.6366 101.804 42.6325 103.553C42.6283 105.303 43.3075 106.948 44.5448 108.185L54.7311 118.372C59.7117 123.353 66.334 126.095 73.3778 126.095H108.25V126.47C108.25 127.506 109.089 128.345 110.125 128.345H126.625C127.661 128.345 128.5 127.506 128.5 126.47V96.4705C128.5 95.4351 127.661 94.5955 126.625 94.5955ZM73.3778 122.345C67.3356 122.345 61.6551 119.993 57.3829 115.72L47.1966 105.534C46.6699 105.007 46.3808 104.307 46.3827 103.562C46.3843 102.817 46.6767 102.119 47.2058 101.594C48.2893 100.521 50.0485 100.525 51.1272 101.604L60.2419 110.721C63.6726 114.153 68.2343 116.043 73.0866 116.043H94.2848C95.3204 116.043 96.1598 115.203 96.1598 114.168C96.1598 113.132 95.3204 112.293 94.2848 112.293H73.8674C72.3419 112.293 71.1008 111.052 71.1008 109.526C71.1008 108.001 72.3419 106.76 73.8674 106.76H85.7057C86.2587 106.76 86.7835 106.516 87.1397 106.093L89.5885 103.186C92.2855 99.9844 96.2331 98.1482 100.419 98.1482C103.229 98.1482 105.923 98.9633 108.25 100.511V122.345H73.3778ZM124.75 124.595H112V98.3455H124.75V124.595Z" fill="white"/>
</g>
<defs>
<linearGradient id="paint0_linear_209_4" x1="0.499999" y1="25.3733" x2="175.721" y2="82.1612" gradientUnits="userSpaceOnUse">
<stop stop-color="#0539D9"/>
<stop offset="0.518734" stop-color="#0027A0"/>
<stop offset="1" stop-color="#6E00A2"/>
</linearGradient>
<clipPath id="clip0_209_4">
<rect width="96" height="96" fill="white" transform="translate(32.5 32.3457)"/>
</clipPath>
</defs>
</svg>
