<svg width="256" height="189" viewBox="0 0 256 189" fill="none" xmlns="http://www.w3.org/2000/svg">
<path d="M183.296 88.0554C186.041 91.8336 186.041 96.9496 183.296 100.728L127.758 177.169C125.013 180.947 120.147 182.528 115.706 181.085L25.8437 151.887C21.4022 150.444 18.3951 146.305 18.3951 141.635L18.3951 47.1482C18.3951 42.4781 21.4022 38.3392 25.8437 36.8961L115.706 7.69809C120.147 6.25495 125.013 7.8359 127.758 11.6141L183.296 88.0554Z" fill="#D3EC89"/>
<g filter="url(#filter0_d_88_199)">
<path d="M50.2639 94.2523C50.2639 88.9124 51.3622 84.1026 53.5588 79.8231C55.7932 75.5057 59.0313 72.0783 63.2729 69.5408C67.5525 67.0034 72.5137 65.7347 78.1566 65.7347C83.2315 65.7347 87.6246 66.7004 91.3361 68.6319C95.0854 70.5255 98.0016 73.1766 100.085 76.585C102.205 79.9935 103.758 83.7807 104.743 87.9466C105.727 92.1126 106.22 96.7329 106.22 101.808C106.22 109.609 104.743 116.862 101.789 123.565C98.8726 130.269 94.6878 135.93 89.2342 140.551C83.7806 145.171 77.456 148.352 70.2603 150.095C68.8591 150.398 67.5904 150.568 66.4542 150.606C65.318 150.682 64.2576 150.36 63.2729 149.64C62.3261 148.921 61.5119 147.784 60.8302 146.232C59.0123 141.876 59.9781 139.093 63.7274 137.881C70.0899 135.949 75.3352 133.45 79.4632 130.382C83.5913 127.315 86.6589 123.054 88.6661 117.6C85.5227 119.948 81.1675 121.123 75.6003 121.123C70.4497 121.085 65.924 119.873 62.0232 117.487C58.1602 115.101 55.2251 111.901 53.2179 107.886C51.2486 103.872 50.2639 99.3272 50.2639 94.2523ZM65.2612 93.9683C65.337 98.4751 66.3974 102.054 68.4425 104.705C70.4876 107.356 73.612 108.682 77.8158 108.682C81.603 108.682 84.7085 107.205 87.1323 104.251C89.5561 101.259 90.768 97.7176 90.768 93.6274C90.768 91.6202 90.5029 89.6888 89.9727 87.833C89.4804 85.9773 88.7419 84.292 87.7572 82.7771C86.7725 81.2622 85.4659 80.0693 83.8374 79.1982C82.2468 78.2893 80.4479 77.8348 78.4407 77.8348C74.199 77.8348 70.942 79.4444 68.6697 82.6635C66.3974 85.8447 65.2612 89.613 65.2612 93.9683ZM116.275 134.813C114.608 130.875 115.782 127.977 119.797 126.122C124.114 124.039 127.333 124.777 129.454 128.337C131.196 131.215 133.09 133.317 135.135 134.643C137.218 135.93 139.888 136.574 143.145 136.574C147.122 136.574 150.265 135.249 152.575 132.598C154.923 129.909 156.135 126.576 156.211 122.6C156.211 119.002 155.472 116.048 153.995 113.737C152.556 111.427 150.587 109.837 148.087 108.966C145.588 108.057 142.672 107.508 139.339 107.318C136.006 107.091 132.503 107.261 128.829 107.829C125.345 108.208 122.562 107.754 120.479 106.466C118.396 105.178 117.354 102.811 117.354 99.3651V77.7212C117.354 73.7446 118.055 70.98 119.456 69.4272C120.857 67.8745 123.262 67.0981 126.671 67.0981H160.244C163.501 67.0981 165.13 69.4272 165.13 74.0855C165.13 78.7437 163.501 81.0729 160.244 81.0729H134.908C133.999 81.0729 133.393 81.2244 133.09 81.5273C132.825 81.8303 132.692 82.4552 132.692 83.402V91.5255C132.692 93.1162 132.844 94.1766 133.147 94.7068C133.488 95.1991 134.34 95.4264 135.703 95.3885C139.793 95.1613 143.581 95.2559 147.065 95.6725C150.549 96.0513 153.825 96.8466 156.893 98.0585C159.998 99.2704 162.611 100.899 164.732 102.944C166.891 104.951 168.595 107.564 169.845 110.783C171.095 114.003 171.701 117.714 171.663 121.918C171.549 130.325 168.822 137.086 163.482 142.198C158.18 147.311 151.325 149.867 142.918 149.867C136.858 149.867 131.48 148.618 126.784 146.118C122.088 143.618 118.585 139.85 116.275 134.813ZM180.581 85.163C180.581 81.6788 181.093 78.6301 182.115 76.017C183.138 73.3659 184.88 71.2072 187.342 69.5408C189.803 67.8366 192.89 66.9845 196.601 66.9845C202.055 66.9845 206.088 68.6887 208.701 72.0972C211.353 75.4678 212.678 79.8231 212.678 85.163C212.678 90.503 211.353 94.8583 208.701 98.2289C206.088 101.599 202.055 103.285 196.601 103.285C191.148 103.285 187.114 101.618 184.501 98.2857C181.888 94.9151 180.581 90.5409 180.581 85.163ZM192.17 149.356C190.542 149.091 189.481 148.409 188.989 147.311C188.497 146.175 188.629 144.887 189.387 143.448L230.232 71.4155C230.951 69.8249 231.879 68.7077 233.015 68.0638C234.189 67.3821 235.818 67.0602 237.901 67.0981C239.832 67.1738 241.234 67.8366 242.105 69.0864C242.976 70.2983 242.976 71.8132 242.105 73.631L201.26 145.664C199.631 148.958 196.601 150.189 192.17 149.356ZM191.829 85.163C191.829 86.2235 191.867 87.1135 191.943 87.833C192.019 88.5147 192.189 89.3479 192.454 90.3326C192.719 91.3172 193.193 92.0747 193.875 92.6049C194.594 93.1351 195.503 93.4002 196.601 93.4002C197.7 93.4002 198.59 93.1351 199.271 92.6049C199.991 92.0747 200.483 91.3172 200.748 90.3326C201.013 89.3479 201.184 88.5147 201.26 87.833C201.335 87.1135 201.373 86.2235 201.373 85.163C201.373 84.292 201.354 83.6103 201.316 83.118C201.316 82.5878 201.222 81.8871 201.032 81.0161C200.881 80.1071 200.654 79.4065 200.351 78.9142C200.048 78.384 199.574 77.9106 198.93 77.494C198.287 77.0774 197.51 76.8691 196.601 76.8691C195.692 76.8691 194.916 77.0774 194.272 77.494C193.628 77.9106 193.155 78.384 192.852 78.9142C192.549 79.4065 192.303 80.1071 192.114 81.0161C191.962 81.8871 191.867 82.5878 191.829 83.118C191.829 83.6103 191.829 84.292 191.829 85.163ZM222.733 144.698C220.12 141.327 218.813 136.953 218.813 131.575C218.813 126.197 220.12 121.861 222.733 118.566C225.384 115.233 229.436 113.567 234.89 113.567C240.344 113.567 244.377 115.233 246.99 118.566C249.641 121.899 250.967 126.235 250.967 131.575C250.967 136.915 249.641 141.27 246.99 144.641C244.377 148.012 240.344 149.697 234.89 149.697C229.436 149.697 225.384 148.031 222.733 144.698ZM230.118 131.575C230.118 132.408 230.137 133.109 230.175 133.677C230.213 134.245 230.307 134.965 230.459 135.836C230.648 136.669 230.894 137.351 231.197 137.881C231.5 138.373 231.974 138.828 232.618 139.244C233.261 139.623 234.019 139.812 234.89 139.812C235.761 139.812 236.518 139.623 237.162 139.244C237.806 138.828 238.28 138.373 238.582 137.881C238.885 137.351 239.113 136.669 239.264 135.836C239.454 134.965 239.567 134.245 239.605 133.677C239.643 133.109 239.662 132.408 239.662 131.575C239.662 130.515 239.624 129.644 239.548 128.962C239.472 128.242 239.302 127.39 239.037 126.406C238.772 125.421 238.28 124.664 237.56 124.133C236.878 123.603 235.988 123.338 234.89 123.338C234.133 123.338 233.47 123.471 232.902 123.736C232.334 123.963 231.879 124.342 231.538 124.872C231.197 125.364 230.913 125.838 230.686 126.292C230.497 126.747 230.364 127.352 230.289 128.11C230.213 128.867 230.156 129.454 230.118 129.871C230.118 130.288 230.118 130.856 230.118 131.575Z" fill="white"/>
</g>
<defs>
<filter id="filter0_d_88_199" x="48.8096" y="64.2803" width="206.52" height="90.802" filterUnits="userSpaceOnUse" color-interpolation-filters="sRGB">
<feFlood flood-opacity="0" result="BackgroundImageFix"/>
<feColorMatrix in="SourceAlpha" type="matrix" values="0 0 0 0 0 0 0 0 0 0 0 0 0 0 0 0 0 0 127 0" result="hardAlpha"/>
<feOffset dx="1.45429" dy="1.45429"/>
<feGaussianBlur stdDeviation="1.45429"/>
<feComposite in2="hardAlpha" operator="out"/>
<feColorMatrix type="matrix" values="0 0 0 0 0 0 0 0 0 0 0 0 0 0 0 0 0 0 0.25 0"/>
<feBlend mode="normal" in2="BackgroundImageFix" result="effect1_dropShadow_88_199"/>
<feBlend mode="normal" in="SourceGraphic" in2="effect1_dropShadow_88_199" result="shape"/>
</filter>
</defs>
</svg>
