<svg width="255" height="189" viewBox="0 0 255 189" fill="none" xmlns="http://www.w3.org/2000/svg">
<path d="M100.036 183.488C96.2577 186.233 91.1417 186.233 87.3636 183.488L10.9222 127.95C7.14408 125.205 5.56315 120.339 7.00628 115.898L36.2043 26.0356C37.6474 21.5941 41.7863 18.587 46.4564 18.587L140.943 18.587C145.613 18.587 149.752 21.5941 151.195 26.0356L180.393 115.898C181.836 120.339 180.255 125.205 176.477 127.95L100.036 183.488Z" fill="#FFE86D"/>
<g filter="url(#filter0_d_88_200)">
<path d="M48.855 113.17C48.855 105.709 50.3131 98.6647 53.2292 92.0371C56.1454 85.4095 60.3302 79.7287 65.7838 74.9947C71.2752 70.2607 77.5809 67.0605 84.7008 65.3941C89.2834 64.3716 92.6161 65.6403 94.6991 69.2002C95.7595 71.0938 95.9488 72.7602 95.2671 74.1993C94.6233 75.6006 93.2599 76.5853 91.177 77.1534C87.4655 78.138 84.0191 79.4636 80.8379 81.1299C77.6567 82.7963 74.6458 85.0686 71.8054 87.9469C69.0029 90.7873 66.9767 94.0064 65.727 97.6042C69.4763 94.8017 74.1346 93.4005 79.7017 93.4005C87.3898 93.4005 93.6197 96.0515 98.3916 101.354C103.201 106.656 105.606 113.283 105.606 121.236C105.606 129.265 102.917 136.025 97.5395 141.517C92.1616 146.97 85.4015 149.697 77.259 149.697C73.1688 149.697 69.4952 149.053 66.2382 147.766C62.9812 146.44 60.2734 144.66 58.1147 142.426C55.9939 140.153 54.2139 137.446 52.7747 134.302C51.3735 131.159 50.3699 127.845 49.7639 124.361C49.158 120.877 48.855 117.146 48.855 113.17ZM64.6476 121.918C64.6476 124.418 65.0831 126.804 65.9542 129.076C66.8631 131.348 68.2833 133.28 70.2148 134.87C72.1841 136.461 74.4943 137.256 77.1454 137.256C81.3492 137.256 84.5683 135.722 86.8027 132.655C89.0372 129.549 90.1544 125.857 90.1544 121.577C90.1544 116.995 89.1129 113.416 87.03 110.841C84.9849 108.227 81.7658 106.921 77.3726 106.921C73.2824 106.921 70.1391 108.398 67.9425 111.352C65.7459 114.306 64.6476 117.828 64.6476 121.918ZM115.775 134.813C114.108 130.875 115.282 127.978 119.297 126.122C123.614 124.039 126.833 124.777 128.954 128.337C130.696 131.216 132.59 133.318 134.635 134.643C136.718 135.931 139.388 136.575 142.645 136.575C146.622 136.575 149.765 135.249 152.075 132.598C154.423 129.909 155.635 126.576 155.711 122.6C155.711 119.002 154.972 116.048 153.495 113.738C152.056 111.428 150.087 109.837 147.587 108.966C145.088 108.057 142.172 107.508 138.839 107.318C135.506 107.091 132.003 107.262 128.329 107.83C124.845 108.208 122.062 107.754 119.979 106.466C117.896 105.179 116.854 102.812 116.854 99.3653V77.7214C116.854 73.7449 117.555 70.9802 118.956 69.4275C120.357 67.8747 122.762 67.0983 126.171 67.0983H159.744C163.001 67.0983 164.63 69.4275 164.63 74.0857C164.63 78.744 163.001 81.0731 159.744 81.0731H134.408C133.499 81.0731 132.893 81.2246 132.59 81.5276C132.325 81.8306 132.192 82.4554 132.192 83.4022V91.5258C132.192 93.1164 132.344 94.1768 132.647 94.707C132.988 95.1994 133.84 95.4266 135.203 95.3887C139.293 95.1615 143.081 95.2562 146.565 95.6728C150.049 96.0515 153.325 96.8468 156.393 98.0587C159.498 99.2706 162.111 100.899 164.232 102.944C166.391 104.951 168.095 107.565 169.345 110.784C170.595 114.003 171.201 117.714 171.163 121.918C171.049 130.326 168.322 137.086 162.982 142.199C157.68 147.311 150.825 149.868 142.418 149.868C136.358 149.868 130.98 148.618 126.284 146.118C121.588 143.619 118.085 139.85 115.775 134.813ZM180.081 85.1633C180.081 81.6791 180.593 78.6304 181.615 76.0172C182.638 73.3662 184.38 71.2075 186.842 69.5411C189.303 67.8368 192.39 66.9847 196.101 66.9847C201.555 66.9847 205.588 68.689 208.201 72.0974C210.853 75.4681 212.178 79.8233 212.178 85.1633C212.178 90.5032 210.853 94.8585 208.201 98.2291C205.588 101.6 201.555 103.285 196.101 103.285C190.648 103.285 186.614 101.619 184.001 98.2859C181.388 94.9153 180.081 90.5411 180.081 85.1633ZM191.67 149.356C190.042 149.091 188.981 148.41 188.489 147.311C187.997 146.175 188.129 144.887 188.887 143.448L229.732 71.4158C230.451 69.8251 231.379 68.7079 232.515 68.0641C233.689 67.3824 235.318 67.0605 237.401 67.0983C239.332 67.1741 240.734 67.8368 241.605 69.0866C242.476 70.2985 242.476 71.8134 241.605 73.6313L200.76 145.664C199.131 148.959 196.101 150.19 191.67 149.356ZM191.329 85.1633C191.329 86.2237 191.367 87.1137 191.443 87.8333C191.519 88.515 191.689 89.3481 191.954 90.3328C192.219 91.3175 192.693 92.0749 193.375 92.6051C194.094 93.1354 195.003 93.4005 196.101 93.4005C197.2 93.4005 198.09 93.1354 198.771 92.6051C199.491 92.0749 199.983 91.3175 200.248 90.3328C200.513 89.3481 200.684 88.515 200.76 87.8333C200.835 87.1137 200.873 86.2237 200.873 85.1633C200.873 84.2922 200.854 83.6105 200.816 83.1182C200.816 82.588 200.722 81.8874 200.532 81.0163C200.381 80.1074 200.154 79.4067 199.851 78.9144C199.548 78.3842 199.074 77.9108 198.43 77.4942C197.787 77.0776 197.01 76.8693 196.101 76.8693C195.192 76.8693 194.416 77.0776 193.772 77.4942C193.128 77.9108 192.655 78.3842 192.352 78.9144C192.049 79.4067 191.803 80.1074 191.614 81.0163C191.462 81.8874 191.367 82.588 191.329 83.1182C191.329 83.6105 191.329 84.2922 191.329 85.1633ZM222.233 144.698C219.62 141.327 218.313 136.953 218.313 131.575C218.313 126.198 219.62 121.861 222.233 118.566C224.884 115.234 228.936 113.567 234.39 113.567C239.844 113.567 243.877 115.234 246.49 118.566C249.141 121.899 250.467 126.235 250.467 131.575C250.467 136.915 249.141 141.271 246.49 144.641C243.877 148.012 239.844 149.697 234.39 149.697C228.936 149.697 224.884 148.031 222.233 144.698ZM229.618 131.575C229.618 132.409 229.637 133.109 229.675 133.677C229.713 134.245 229.807 134.965 229.959 135.836C230.148 136.669 230.394 137.351 230.697 137.881C231 138.373 231.474 138.828 232.118 139.245C232.761 139.623 233.519 139.813 234.39 139.813C235.261 139.813 236.018 139.623 236.662 139.245C237.306 138.828 237.78 138.373 238.082 137.881C238.385 137.351 238.613 136.669 238.764 135.836C238.954 134.965 239.067 134.245 239.105 133.677C239.143 133.109 239.162 132.409 239.162 131.575C239.162 130.515 239.124 129.644 239.048 128.962C238.972 128.243 238.802 127.391 238.537 126.406C238.272 125.421 237.78 124.664 237.06 124.134C236.378 123.603 235.488 123.338 234.39 123.338C233.633 123.338 232.97 123.471 232.402 123.736C231.834 123.963 231.379 124.342 231.038 124.872C230.697 125.364 230.413 125.838 230.186 126.292C229.997 126.747 229.864 127.353 229.789 128.11C229.713 128.868 229.656 129.455 229.618 129.871C229.618 130.288 229.618 130.856 229.618 131.575Z" fill="white"/>
</g>
<defs>
<filter id="filter0_d_88_200" x="47.4007" y="62.4061" width="207.429" height="92.563" filterUnits="userSpaceOnUse" color-interpolation-filters="sRGB">
<feFlood flood-opacity="0" result="BackgroundImageFix"/>
<feColorMatrix in="SourceAlpha" type="matrix" values="0 0 0 0 0 0 0 0 0 0 0 0 0 0 0 0 0 0 127 0" result="hardAlpha"/>
<feOffset dx="1.45429" dy="1.45429"/>
<feGaussianBlur stdDeviation="1.45429"/>
<feComposite in2="hardAlpha" operator="out"/>
<feColorMatrix type="matrix" values="0 0 0 0 0 0 0 0 0 0 0 0 0 0 0 0 0 0 0.25 0"/>
<feBlend mode="normal" in2="BackgroundImageFix" result="effect1_dropShadow_88_200"/>
<feBlend mode="normal" in="SourceGraphic" in2="effect1_dropShadow_88_200" result="shape"/>
</filter>
</defs>
</svg>
