<svg width="94" height="96" viewBox="0 0 94 96" fill="none" xmlns="http://www.w3.org/2000/svg">
<g opacity="0.6" clip-path="url(#clip0_91_213)">
<path d="M87.6524 29.4713L83.7977 26.9135C83.6334 26.5497 83.3717 26.2402 83.0446 26.0213V23.8607C83.0446 21.6914 81.2983 19.9265 79.1519 19.9265C77.0054 19.9265 75.2591 21.6914 75.2591 23.8607V26.0213C74.6911 26.4018 74.316 27.0527 74.316 27.7912V42.6002C74.316 43.3388 74.6911 43.9896 75.2591 44.3701V69.1704C75.2591 72.366 75.8902 75.4753 77.1359 78.4115C77.894 80.1981 80.4091 80.2003 81.1678 78.4115C82.4128 75.4753 83.0446 72.366 83.0446 69.1704C83.0446 68.455 83.0446 45.632 83.0446 44.3701C83.6119 43.9896 83.9877 43.3388 83.9877 42.6002V30.3693L85.5196 31.3862V54.3012C85.5196 55.0703 86.1363 55.6936 86.8972 55.6936C87.6574 55.6936 88.2742 55.0703 88.2742 54.3012V30.6346C88.2735 30.1657 88.0397 29.7286 87.6524 29.4713ZM80.29 66.3763H78.013V44.7224H80.29V66.3763ZM81.2338 28.4515V41.9392H77.0699V28.4515H81.2338ZM78.013 23.8607C78.013 23.2258 78.5236 22.7097 79.1519 22.7097C79.7794 22.7097 80.29 23.2258 80.29 23.8607V25.6683H78.013V23.8607ZM80.29 69.1704C80.29 71.5049 79.9078 73.7866 79.1519 75.974C78.3953 73.7866 78.013 71.5049 78.013 69.1704V69.1595H80.29V69.1704Z" fill="#0027A0"/>
<path d="M29.9021 41.099C29.3643 40.5554 28.4922 40.5554 27.9543 41.099L27.6847 41.3716C27.1439 40.5598 26.2267 40.0242 25.1875 40.0242H18.8729C17.2148 40.0242 15.8651 41.3875 15.8651 43.064V49.4458C15.8651 51.1215 17.2148 52.4848 18.8729 52.4848H25.1875C26.8456 52.4848 28.1953 51.1215 28.1953 49.4458V44.7926L29.9021 43.0676C30.4393 42.524 30.4393 41.6426 29.9021 41.099ZM25.4407 49.445C25.4407 49.5842 25.3245 49.7016 25.1875 49.7016H18.8729C18.7373 49.7016 18.619 49.5813 18.619 49.445V43.0632C18.619 42.9248 18.7352 42.8074 18.8729 42.8074H25.1875C25.3245 42.8074 25.4407 42.9248 25.4407 43.0632V43.6394L23.3925 45.7094L21.7064 44.0047C21.1685 43.4611 20.2965 43.4611 19.7586 44.0047C19.2207 44.5483 19.2207 45.4289 19.7586 45.9725L22.4193 48.6615C22.9571 49.2044 23.8285 49.2044 24.3664 48.6615L25.4407 47.5751V49.445Z" fill="#0027A0"/>
<path d="M18.8729 69.5654H25.1875C26.8456 69.5654 28.1953 68.202 28.1953 66.5256V61.8724L29.9021 60.1474C30.44 59.6038 30.44 58.7232 29.9014 58.1796C29.3643 57.636 28.4922 57.636 27.9543 58.1796L27.6847 58.4521C27.1439 57.6404 26.2267 57.1047 25.1875 57.1047H18.8729C17.2141 57.1047 15.8651 58.4681 15.8651 60.1438V66.5256C15.8651 68.202 17.2141 69.5654 18.8729 69.5654ZM18.619 60.1438C18.619 60.0054 18.7352 59.8879 18.8729 59.8879H25.1875C25.3245 59.8879 25.4407 60.0054 25.4407 60.1438V60.72L23.3925 62.79L21.7064 61.0853C21.1685 60.5417 20.2965 60.5417 19.7586 61.0853C19.2207 61.6282 19.2207 62.5095 19.7586 63.0531L22.4193 65.7421C22.9564 66.285 23.8285 66.2857 24.3664 65.7421L25.4407 64.6556V66.5256C25.4407 66.664 25.3245 66.7814 25.1875 66.7814H18.8729C18.7352 66.7814 18.619 66.664 18.619 66.5256V60.1438Z" fill="#0027A0"/>
<path d="M15.8651 83.6059C15.8651 85.2816 17.2141 86.6457 18.8729 86.6457H25.1875C26.8456 86.6457 28.1953 85.2816 28.1953 83.6059V78.9527L29.9021 77.2277C30.44 76.6841 30.44 75.8028 29.9021 75.2599C29.3643 74.7163 28.4922 74.7163 27.9543 75.2599L27.6847 75.5324C27.1439 74.7207 26.2267 74.1851 25.1875 74.1851H18.8729C17.2141 74.1851 15.8651 75.5484 15.8651 77.2241V83.6059ZM18.619 77.2241C18.619 77.085 18.7352 76.9675 18.8729 76.9675H25.1875C25.3245 76.9675 25.4407 77.085 25.4407 77.2241V77.7996L23.3925 79.8696L21.7064 78.1649C21.1685 77.622 20.2965 77.622 19.7586 78.1649C19.2207 78.7085 19.2207 79.5898 19.7586 80.1334L22.4193 82.8217C22.9571 83.3653 23.8285 83.3653 24.3664 82.8217L25.4407 81.7359V83.6052C25.4407 83.7443 25.3245 83.8618 25.1875 83.8618H18.8729C18.7373 83.8618 18.619 83.7422 18.619 83.6052V77.2241Z" fill="#0027A0"/>
<path d="M59.8301 42.0254H33.8515C33.0906 42.0254 32.4739 42.648 32.4739 43.417C32.4739 44.186 33.0906 44.8086 33.8515 44.8086H59.8301C60.591 44.8086 61.207 44.186 61.207 43.417C61.207 42.648 60.591 42.0254 59.8301 42.0254Z" fill="#0027A0"/>
<path d="M59.8301 59.1057H33.8515C33.0906 59.1057 32.4739 59.7283 32.4739 60.4973C32.4739 61.2663 33.0906 61.8889 33.8515 61.8889H59.8301C60.591 61.8889 61.207 61.2663 61.207 60.4973C61.207 59.7283 60.591 59.1057 59.8301 59.1057Z" fill="#0027A0"/>
<path d="M59.8301 76.1863H33.8515C33.0906 76.1863 32.4739 76.8089 32.4739 77.5779C32.4739 78.3462 33.0906 78.9695 33.8515 78.9695H59.8301C60.591 78.9695 61.207 78.3462 61.207 77.5779C61.207 76.8089 60.591 76.1863 59.8301 76.1863Z" fill="#0027A0"/>
<path d="M59.8301 47.6953H33.8515C33.0906 47.6953 32.4739 48.3186 32.4739 49.0869C32.4739 49.8559 33.0906 50.4792 33.8515 50.4792H59.8301C60.591 50.4792 61.207 49.8559 61.207 49.0869C61.207 48.3186 60.591 47.6953 59.8301 47.6953Z" fill="#0027A0"/>
<path d="M59.8301 64.7759H33.8515C33.0906 64.7759 32.4739 65.3985 32.4739 66.1675C32.4739 66.9365 33.0906 67.5591 33.8515 67.5591H59.8301C60.591 67.5591 61.207 66.9365 61.207 66.1675C61.207 65.3985 60.591 64.7759 59.8301 64.7759Z" fill="#0027A0"/>
<path d="M33.8515 84.6394H59.8301C60.591 84.6394 61.207 84.0168 61.207 83.2478C61.207 82.4788 60.591 81.8562 59.8301 81.8562H33.8515C33.0906 81.8562 32.4739 82.4788 32.4739 83.2478C32.4739 84.0168 33.0906 84.6394 33.8515 84.6394Z" fill="#0027A0"/>
<path d="M61.207 33.1221V29.9707C61.207 29.2016 60.591 28.5791 59.8301 28.5791C59.0692 28.5791 58.4531 29.2016 58.4531 29.9707V32.6662H18.619V20.781H58.4531V23.4758C58.4531 24.2448 59.0692 24.8674 59.8301 24.8674C60.591 24.8674 61.207 24.2448 61.207 23.4758V20.3244C61.207 19.0415 60.1743 17.9978 58.9042 17.9978H18.1679C16.8978 17.9978 15.8651 19.0415 15.8651 20.3244V33.1221C15.8651 34.4049 16.8978 35.4494 18.1679 35.4494H58.9042C60.1743 35.4494 61.207 34.4049 61.207 33.1221Z" fill="#0027A0"/>
<path d="M67.4886 5.8227H20.3387V4.62607C20.3387 2.45676 18.5925 0.691895 16.446 0.691895C14.2995 0.691895 12.5532 2.45676 12.5532 4.62607V5.8227H9.03625C7.39467 5.8227 6.05859 7.17226 6.05859 8.83204V92.6826C6.05859 94.3416 7.39467 95.6919 9.03625 95.6919H35.3232C36.0841 95.6919 36.7001 95.0693 36.7001 94.3003C36.7001 93.5313 36.0841 92.9087 35.3232 92.9087H9.03625C8.9129 92.9087 8.8125 92.8072 8.8125 92.6826V8.83204C8.8125 8.70737 8.9129 8.6059 9.03625 8.6059H12.5532V10.5425C12.5532 12.7119 14.2995 14.4767 16.446 14.4767C18.5917 14.4767 20.338 12.7119 20.338 10.5425V8.6059H67.4886C67.612 8.6059 67.7124 8.70737 67.7124 8.83204V92.6826C67.7124 92.8072 67.612 92.9087 67.4886 92.9087H41.7496C40.9887 92.9087 40.372 93.5313 40.372 94.3003C40.372 95.0693 40.9887 95.6919 41.7496 95.6919H67.4886C69.1302 95.6919 70.4663 94.3416 70.4663 92.6826V8.83204C70.4663 7.17299 69.1309 5.8227 67.4886 5.8227ZM17.5841 10.5425C17.5841 11.1767 17.0735 11.6928 16.446 11.6928C15.8185 11.6928 15.3078 11.1767 15.3078 10.5425C15.3078 7.29693 15.3078 6.08942 15.3078 4.62607C15.3078 3.99115 15.8185 3.4751 16.446 3.4751C17.0735 3.4751 17.5841 3.99115 17.5841 4.62607V10.5425Z" fill="#0027A0"/>
</g>
<defs>
<clipPath id="clip0_91_213">
<rect width="94" height="95" fill="white" transform="translate(0 0.691895)"/>
</clipPath>
</defs>
</svg>
