<svg width="94" height="95" viewBox="0 0 94 95" fill="none" xmlns="http://www.w3.org/2000/svg">
<g opacity="0.6">
<path d="M93.9972 39.5036C93.9598 38.6445 93.4812 37.052 90.697 36.0388L16.4676 9.04811C12.6626 7.66363 8.43999 9.63212 7.05496 13.4373L5.04552 18.9578C5.04552 18.9578 5.04534 18.9583 5.04516 18.9587L0.524527 31.3793C-0.86032 35.1847 1.10854 39.407 4.91425 40.7922L26.5482 48.6572C26.1371 51.1577 26.8229 53.6283 28.3155 55.5184L23.7069 68.1796C23.4949 68.7623 22.9353 69.1539 22.3145 69.1539H8.8125V64.7477C8.8125 62.3182 6.83593 60.3414 4.40625 60.3414H1.46875C0.657633 60.3414 0 60.9991 0 61.8102V85.3102C0 86.1213 0.657633 86.7789 1.46875 86.7789H4.40625C6.83593 86.7789 8.8125 84.8022 8.8125 82.3727V77.9664H22.3145C26.6268 77.9664 30.5142 75.2441 31.9879 71.1926L36.4995 58.7974C39.0814 58.435 41.4277 56.9275 42.8205 54.5731L68.1019 63.7642C68.9283 64.0649 69.7739 64.2076 70.6063 64.2076C73.1309 64.2074 75.5297 62.8951 76.8731 60.7046L79.7742 61.7604C80.102 61.8796 80.4416 61.9391 80.7803 61.9391C81.2031 61.9391 81.6245 61.8465 82.019 61.6626C82.7297 61.3312 83.2688 60.7428 83.5368 60.0062L87.557 48.9608C88.0459 47.6175 87.4879 46.1452 86.3032 45.438L91.0116 43.2426C93.6969 41.9905 94.0347 40.3626 93.9972 39.5036ZM5.875 82.3727C5.875 83.1825 5.21608 83.8414 4.40625 83.8414H2.9375V63.2789H4.40625C5.21608 63.2789 5.875 63.9379 5.875 64.7477V82.3727ZM29.2276 70.1881C28.1743 73.0836 25.3962 75.0289 22.3145 75.0289H8.8125V72.0914H22.3145C24.1655 72.0914 25.8342 70.9232 26.4672 69.1844L30.6835 57.6008C31.1672 57.8914 31.6855 58.1409 32.2359 58.3412C32.6266 58.4835 33.0208 58.596 33.4157 58.6814L29.2276 70.1881ZM35.4527 55.9385C35.4187 55.9383 35.3849 55.9383 35.3512 55.9403C34.6517 55.9497 33.938 55.8348 33.2406 55.5809C32.4241 55.2836 31.7121 54.8263 31.1289 54.2566C31.0754 54.1916 31.0161 54.1314 30.9513 54.0761C29.8575 52.911 29.2718 51.3294 29.3827 49.6877L39.9867 53.5428C38.9138 55.0163 37.2343 55.8836 35.4527 55.9385ZM84.797 47.9562L80.7794 59.0003L78.0171 57.9949L81.8277 47.5251L82.6078 47.1614L84.797 47.9562ZM89.7706 40.5803L81.9188 44.2416C81.9179 44.2419 81.9171 44.2423 81.9164 44.2427L80.036 45.1195C80.0353 45.1199 80.0348 45.1201 80.034 45.1204L77.8294 46.1484C75.2422 47.3548 70.7899 47.549 68.1067 46.5725L25.6214 31.1357C24.8593 30.859 24.0164 31.2523 23.7394 32.0146C23.4624 32.7771 23.8558 33.6196 24.6183 33.8968L67.1028 49.3332C68.5811 49.8713 70.4033 50.1333 72.2627 50.1333C74.2956 50.1333 76.3713 49.8184 78.0892 49.2087L74.7548 58.3702C73.9238 60.6534 71.3903 61.8346 69.1067 61.0035L5.91833 38.0317C3.63516 37.2007 2.45391 34.6673 3.28486 32.3842L5.79789 25.4796C6.636 26.768 7.88241 27.8055 9.43488 28.3706L10.8155 28.8729C11.5771 29.1505 12.4205 28.7573 12.6979 27.995C12.9753 27.2329 12.5822 26.39 11.8199 26.1126L10.4395 25.6103C8.1567 24.7793 6.97528 22.2465 7.80567 19.9635L8.30835 18.5823C8.30835 18.5823 8.30854 18.5819 8.30854 18.5818L9.81529 14.4419C10.6464 12.1587 13.1798 10.9769 15.4634 11.8084L89.6927 38.7993C90.6356 39.1424 90.9845 39.5001 91.0553 39.6319C90.9962 39.7696 90.6801 40.156 89.7706 40.5803Z" fill="#0027A0"/>
<path d="M20.1008 29.1268L17.3401 28.1218C16.578 27.844 15.7351 28.2375 15.4575 28.9996C15.1801 29.7617 15.573 30.6046 16.3353 30.8821L19.096 31.8871C19.2618 31.9475 19.4314 31.976 19.5983 31.976C20.1983 31.976 20.7613 31.6055 20.9785 31.0092C21.2561 30.2473 20.8631 29.4044 20.1008 29.1268Z" fill="#0027A0"/>
</g>
</svg>
