<svg width="94" height="95" viewBox="0 0 94 95" fill="none" xmlns="http://www.w3.org/2000/svg">
<g opacity="0.6" clip-path="url(#clip0_91_253)">
<path d="M77.8438 71.1919H80.7812V74.1294H77.8438V71.1919Z" fill="#0027A0"/>
<path d="M77.8438 62.3794H80.7812V68.2544H77.8438V62.3794Z" fill="#0027A0"/>
<path d="M73.4375 0.691895H32.3125C30.3648 0.691895 28.4969 1.46561 27.1197 2.84283C25.7425 4.22005 24.9688 6.08796 24.9688 8.03564V25.6606H27.9062V8.03564C27.9062 6.86703 28.3705 5.74629 29.1968 4.91996C30.0231 4.09362 31.1439 3.62939 32.3125 3.62939H73.4375C74.6061 3.62939 75.7269 4.09362 76.5532 4.91996C77.3795 5.74629 77.8438 6.86703 77.8438 8.03564V59.4419H80.7812V8.03564C80.7812 6.08796 80.0075 4.22005 78.6303 2.84283C77.2531 1.46561 75.3852 0.691895 73.4375 0.691895V0.691895Z" fill="#0027A0"/>
<path d="M77.8438 87.3481C77.8438 88.5168 77.3795 89.6375 76.5532 90.4638C75.7269 91.2902 74.6061 91.7544 73.4375 91.7544H32.3125C31.1439 91.7544 30.0231 91.2902 29.1968 90.4638C28.3705 89.6375 27.9062 88.5168 27.9062 87.3481V63.8481H24.9688V87.3481C24.9688 89.2958 25.7425 91.1637 27.1197 92.541C28.4969 93.9182 30.3648 94.6919 32.3125 94.6919H73.4375C75.3852 94.6919 77.2531 93.9182 78.6303 92.541C80.0075 91.1637 80.7812 89.2958 80.7812 87.3481V77.0669H77.8438V87.3481Z" fill="#0027A0"/>
<path d="M30.8438 81.4731V84.4106C30.8438 85.5793 31.308 86.7 32.1343 87.5263C32.9606 88.3527 34.0814 88.8169 35.25 88.8169H38.1875V85.8794H35.25C34.8605 85.8794 34.4869 85.7247 34.2114 85.4492C33.936 85.1738 33.7812 84.8002 33.7812 84.4106V81.4731H30.8438Z" fill="#0027A0"/>
<path d="M39.6562 6.56689V8.03564C39.6563 9.20425 40.1205 10.325 40.9468 11.1513C41.7731 11.9777 42.8939 12.4419 44.0625 12.4419H61.6875C62.8561 12.4419 63.9769 11.9777 64.8032 11.1513C65.6295 10.325 66.0938 9.20425 66.0938 8.03564V6.56689H63.1562V8.03564C63.1562 8.42518 63.0015 8.79876 62.7261 9.07421C62.4506 9.34965 62.077 9.50439 61.6875 9.50439H44.0625C43.673 9.50439 43.2994 9.34965 43.0239 9.07421C42.7485 8.79876 42.5938 8.42518 42.5938 8.03564V6.56689H39.6562Z" fill="#0027A0"/>
<path d="M47.8078 67.2997C48.18 67.7589 48.6501 68.1291 49.1837 68.3832C49.7174 68.6374 50.3011 68.769 50.8922 68.7685C51.2957 68.7747 51.6975 68.7152 52.0819 68.5922C52.8431 68.3623 53.5176 67.9088 54.0179 67.2907C54.5181 66.6726 54.821 65.9184 54.8872 65.126L55.2544 60.9106H56.2237C57.2833 60.9106 58.2994 60.4897 59.0486 59.7405C59.7979 58.9913 60.2188 57.9752 60.2188 56.9156V41.8169H57.2812V56.9156C57.2812 57.1961 57.1698 57.4651 56.9715 57.6634C56.7732 57.8617 56.5042 57.9731 56.2237 57.9731H52.5666L51.9497 64.8763C51.9386 65.086 51.8616 65.2869 51.7298 65.4504C51.5979 65.6138 51.4179 65.7316 51.2153 65.7869C51.0149 65.8535 50.7989 65.8569 50.5965 65.7964C50.3942 65.736 50.2154 65.6147 50.0844 65.4491L43.9744 57.9731H17.2138C16.9333 57.9731 16.6643 57.8617 16.466 57.6634C16.2677 57.4651 16.1562 57.1961 16.1562 56.9156V38.8794H13.2188V56.9156C13.2188 57.9752 13.6397 58.9913 14.3889 59.7405C15.1381 60.4897 16.1542 60.9106 17.2138 60.9106H42.5938L47.8078 67.2997Z" fill="#0027A0"/>
<path d="M16.1562 32.5931C16.1562 32.3127 16.2677 32.0437 16.466 31.8454C16.6643 31.6471 16.9333 31.5356 17.2138 31.5356H47V28.5981H17.2138C16.1542 28.5981 15.1381 29.019 14.3889 29.7683C13.6397 30.5175 13.2188 31.5336 13.2188 32.5931V35.9419H16.1562V32.5931Z" fill="#0027A0"/>
<path d="M24.9688 37.4106H49.9375V40.3481H24.9688V37.4106Z" fill="#0027A0"/>
<path d="M20.5625 43.2856H52.875V46.2231H20.5625V43.2856Z" fill="#0027A0"/>
<path d="M49.9375 49.1606H52.875V52.0981H49.9375V49.1606Z" fill="#0027A0"/>
<path d="M20.5625 49.1606H47V52.0981H20.5625V49.1606Z" fill="#0027A0"/>
<path d="M67.5625 30.0669C67.5625 28.324 67.0457 26.6201 66.0773 25.1709C65.109 23.7217 63.7327 22.5922 62.1224 21.9252C60.5121 21.2582 58.7402 21.0837 57.0308 21.4237C55.3213 21.7638 53.7511 22.6031 52.5186 23.8355C51.2862 25.068 50.4469 26.6382 50.1068 28.3477C49.7668 30.0571 49.9413 31.829 50.6083 33.4393C51.2753 35.0496 52.4048 36.4259 53.854 37.3942C55.3033 38.3626 57.0071 38.8794 58.75 38.8794C61.0872 38.8794 63.3287 37.9509 64.9814 36.2983C66.634 34.6456 67.5625 32.4041 67.5625 30.0669ZM52.875 30.0669C52.875 28.9049 53.2196 27.7691 53.8651 26.8029C54.5107 25.8368 55.4282 25.0838 56.5017 24.6391C57.5753 24.1944 58.7565 24.0781 59.8962 24.3048C61.0358 24.5315 62.0826 25.091 62.9043 25.9126C63.7259 26.7343 64.2854 27.7811 64.5121 28.9207C64.7388 30.0604 64.6225 31.2416 64.1778 32.3152C63.7331 33.3887 62.9801 34.3062 62.014 34.9518C61.0478 35.5973 59.912 35.9419 58.75 35.9419C57.1919 35.9419 55.6975 35.3229 54.5958 34.2212C53.494 33.1194 52.875 31.625 52.875 30.0669Z" fill="#0027A0"/>
<path d="M60.2187 34.4731V25.6606H56.679L54.7697 27.5553L56.8553 29.641L57.2812 29.2003V34.4731H60.2187Z" fill="#0027A0"/>
</g>
<defs>
<clipPath id="clip0_91_253">
<rect width="94" height="94" fill="white" transform="translate(0 0.691895)"/>
</clipPath>
</defs>
</svg>
