<svg width="146" height="147" viewBox="0 0 146 147" fill="none" xmlns="http://www.w3.org/2000/svg">
<path d="M44 30.124C29.3984 15.3551 7.02849 20.115 7.02849 20.115C7.02849 20.115 5.97226 52.6209 16.7229 70.3838" fill="#FFE86D"/>
<path d="M128.277 70.3838C139.028 52.6208 137.972 20.115 137.972 20.115C137.972 20.115 115.602 15.3551 101 30.1238" fill="#FFE86D"/>
<path d="M130 88.0854C130 119.831 104.257 132.384 72.5 132.384C40.7458 132.384 15 119.83 15 88.0854C15 61.3052 33.3265 31.5236 58.1257 22.8678C62.72 21.2619 67.5359 20.3838 72.5 20.3838H72.6597C104.343 20.5053 130 56.3964 130 88.0854Z" fill="#FFE86D"/>
<path d="M69.69 96.783L63.4878 86.4695C62.1478 84.2417 63.7269 81.3838 66.2976 81.3838H78.7024C81.2731 81.3838 82.8522 84.2417 81.5122 86.4695L75.31 96.783C74.026 98.9174 70.9737 98.9174 69.69 96.783Z" fill="#FFE86D"/>
<path d="M97 77.3838C93.6863 77.3838 91 74.5379 91 71.0275V61.7401C91 58.2297 93.6863 55.3838 97 55.3838C100.314 55.3838 103 58.2297 103 61.7401V71.0275C103 74.5379 100.314 77.3838 97 77.3838Z" fill="#FFE86D"/>
<path d="M49 77.3838C45.6863 77.3838 43 74.5379 43 71.0275V61.7401C43 58.2297 45.6863 55.3838 49 55.3838C52.3137 55.3838 55 58.2297 55 61.7401V71.0275C55.0003 74.5379 52.3139 77.3838 49 77.3838Z" fill="#FFE86D"/>
<path d="M92 36.9651C87.8355 43.3385 80.0638 46.7322 72.3009 44.8801C62.5314 42.5515 56.3986 32.7784 58.3672 22.8692C62.8962 21.2624 67.6437 20.3838 72.5373 20.3838H72.6946C73.587 28.0148 79.0666 34.622 86.8675 36.4829C88.5907 36.8939 90.3142 37.0448 92 36.9651Z" fill="#FFE86D"/>
<path d="M145.963 80.632C145.71 79.1233 144.246 78.099 142.691 78.3432L133.269 79.8286C133.039 75.686 132.379 71.4793 131.327 67.3001C131.334 67.2893 131.341 67.2785 131.348 67.2674C142.327 49.4665 141.421 18.1025 141.377 16.7759C141.335 15.5053 140.407 14.4259 139.126 14.1585C138.883 14.1076 133.061 12.9195 125.354 13.5874C115.761 14.4201 107.445 17.7919 101.173 23.3702C92.862 17.8278 83.3553 14.4669 73.1596 14.429H72.9999C67.8602 14.429 62.7115 15.293 57.6965 16.9965C57.6916 16.9982 57.6868 16.9996 57.6819 17.0012C53.2543 18.505 48.9442 20.66 44.8471 23.3882C38.5726 17.7993 30.2486 14.4212 20.6457 13.5874C12.9377 12.9184 7.11711 14.1079 6.8733 14.1585C5.59296 14.4259 4.66478 15.5053 4.62286 16.7759C4.57923 18.1022 3.67358 49.4579 14.6483 67.26C13.6004 71.4539 12.9522 75.6688 12.7287 79.8281L3.30944 78.3429C1.75221 78.0985 0.289933 79.1227 0.0372862 80.6317C-0.215076 82.141 0.840282 83.563 2.39495 83.8083L12.6888 85.4313C12.9423 91.563 14.1992 97.1133 16.4462 102.053L4.38875 105.79C2.88855 106.255 2.06075 107.813 2.53981 109.269C2.92676 110.446 4.04799 111.196 5.25534 111.196C5.54277 111.196 5.83506 111.153 6.12363 111.064L19.1729 107.019C21.232 110.176 23.7744 113.029 26.7962 115.567C35.1088 122.547 46.6923 126.854 61.2253 128.367C61.3285 128.378 61.4311 128.383 61.5329 128.383C62.9713 128.383 64.2077 127.33 64.3648 125.91C64.5328 124.39 63.3993 123.025 61.8335 122.862C48.3756 121.461 33.1652 117.062 24.7716 105.284L43.7182 99.4113C45.2184 98.9462 46.0462 97.3885 45.5671 95.9321C45.0878 94.4755 43.4835 93.6732 41.9833 94.1372L21.8896 100.365C20.0104 96.3897 18.7936 91.7496 18.446 86.3393L42.3931 90.1149C42.5479 90.1393 42.7019 90.1512 42.8536 90.1512C44.2272 90.1512 45.4377 89.1851 45.6649 87.8264C45.9173 86.3172 44.8619 84.8951 43.3073 84.6498L18.3938 80.7217C19.4019 57.2037 35.2953 33.0064 55.4067 23.8762C55.5227 27.6432 56.6842 31.3261 58.8231 34.5741C61.8763 39.2101 66.5939 42.457 72.1059 43.7163C73.7398 44.09 75.3886 44.2707 77.024 44.2707C84.1825 44.2707 91.0673 40.8032 95.1242 34.8518C95.7167 33.9823 95.7561 32.8633 95.2254 31.957C94.6953 31.0507 93.6782 30.5164 92.6128 30.5588C91.1294 30.6269 89.6426 30.4923 88.1923 30.1604C82.8197 28.9319 78.5416 25.0798 76.7679 20.1407C89.4336 21.3175 101.644 28.3915 111.489 40.3473C121.065 51.977 126.991 66.9001 127.604 80.7222L102.692 84.6501C101.138 84.8954 100.082 86.3171 100.334 87.8267C100.562 89.1853 101.772 90.1515 103.146 90.1515C103.297 90.1515 103.451 90.1396 103.606 90.1152L127.553 86.3396C127.206 91.7499 125.989 96.39 124.11 100.366L104.016 94.1377C102.517 93.6724 100.911 94.4763 100.432 95.9327C99.9533 97.3893 100.781 98.947 102.281 99.4118L121.228 105.284C112.835 117.063 97.6247 121.461 84.1674 122.863C82.6016 123.026 81.4681 124.39 81.6361 125.91C81.7932 127.33 83.0296 128.384 84.4679 128.384C84.5695 128.384 84.6724 128.378 84.7756 128.368C99.3088 126.854 110.892 122.548 119.204 115.567C122.226 113.03 124.768 110.177 126.827 107.02L139.876 111.065C140.165 111.154 140.457 111.197 140.744 111.197C141.952 111.197 143.073 110.446 143.46 109.27C143.939 107.813 143.111 106.255 141.611 105.791L129.554 102.054C131.801 97.1142 133.057 91.5638 133.311 85.4321L143.605 83.8091C145.159 83.563 146.215 82.1412 145.963 80.632ZM25.3605 43.2318C21.9092 48.4228 19.1107 53.9347 17.0262 59.5734C10.8934 45.6067 10.31 25.8998 10.2994 19.2471C15.6854 18.6353 29.7168 18.0742 40.2096 26.7942C34.6679 31.2611 29.6275 36.8139 25.3605 43.2318ZM86.7808 35.525C83.0473 38.2988 78.1389 39.4075 73.4133 38.327C65.5063 36.5205 60.3826 29.3986 61.1782 21.7128C64.3517 20.7683 67.5719 20.2036 70.7936 20.0261C72.6996 27.6084 78.8532 33.6719 86.7808 35.525ZM105.806 26.7812C116.299 18.0734 130.321 18.6362 135.7 19.2471C135.689 25.9089 135.105 45.6587 128.949 59.6293C124.289 47.0041 116.182 35.1709 105.806 26.7812Z" fill="#FFE86D"/>
</svg>
