<svg width="146" height="147" viewBox="0 0 146 147" fill="none" xmlns="http://www.w3.org/2000/svg">
<path d="M125.583 1.70403C128.745 0.487992 132.142 2.89 131.995 6.29439C130.81 33.7315 121.43 57.3838 121.43 57.3838L86 32.3533C100.126 15.2228 117.218 4.92169 125.583 1.70403Z" fill="#D3EC89"/>
<path d="M98 40.7523C107.357 25.6325 121.471 11.196 125.94 8.62029C127.751 7.57624 129.342 10.1307 128.936 13.4978C126.778 31.4187 122.864 47.5151 120.453 56.3838L98 40.7523Z" fill="#D3EC89"/>
<path d="M20.4168 1.70403C17.2552 0.487992 13.8576 2.89 14.0046 6.29439C15.1902 33.7315 24.5702 57.3838 24.5702 57.3838L60 32.3533C45.8743 15.2228 28.7816 4.92169 20.4168 1.70403Z" fill="#D3EC89"/>
<path d="M49 40.7523C39.6427 25.6325 25.5287 11.196 21.0602 8.62029C19.2488 7.57624 17.6582 10.1307 18.0638 13.4978C20.2219 31.4187 24.1362 47.5151 26.5466 56.3838L49 40.7523Z" fill="#D3EC89"/>
<path d="M73 145.384C80.732 145.384 87 141.13 87 135.884C87 130.637 80.732 126.384 73 126.384C65.268 126.384 59 130.637 59 135.884C59 141.13 65.268 145.384 73 145.384Z" fill="#D3EC89"/>
<path d="M57 133.384C40.3751 124.134 12.8326 114.063 12.8326 114.063L15.4757 106.342C14.3615 105.827 6.72894 105.73 0 107.946L7.12496 96.3838H57V133.384Z" fill="#D3EC89"/>
<path d="M89 133.384C105.625 124.134 133.167 114.063 133.167 114.063L130.524 106.342C131.638 105.827 139.271 105.73 146 107.946L138.875 96.3838H89V133.384Z" fill="#D3EC89"/>
<path d="M73 27.3838C107.326 27.3838 136.794 61.8464 145.894 107.078C145.93 107.256 145.965 107.433 146 107.611C146 107.611 128.633 89.6188 109.794 99.205C102.808 102.76 99.4919 110.57 99.4919 119.105C99.4919 133.256 88.1715 141.085 74.7603 135.646C73.6234 135.185 72.3764 135.185 71.2394 135.646C57.8283 141.086 46.5078 133.256 46.5078 119.105C46.5078 110.57 43.1912 102.76 36.2054 99.205C17.3669 89.6188 0 107.611 0 107.611C0.0350742 107.433 0.0704336 107.256 0.106078 107.078C9.20598 61.8461 38.6737 27.3838 73 27.3838Z" fill="#D3EC89"/>
<path d="M48 93.3838C43.5999 93.3838 40 89.7089 40 85.2171V80.5505C40 76.0587 43.5999 72.3838 48 72.3838C52.4001 72.3838 56 76.0587 56 80.5505V85.2171C56.0003 89.7089 52.4001 93.3838 48 93.3838Z" fill="#D3EC89"/>
<path d="M48.125 72.3838C47.74 72.3838 47.3705 72.445 47 72.4998V83.8124C47 86.3369 49.0149 88.3838 51.5 88.3838C53.9854 88.3838 56 86.3369 56 83.8124V80.3838C56.0003 75.9837 52.4563 72.3838 48.125 72.3838Z" fill="#D3EC89"/>
<path d="M48.5 81.3838C50.433 81.3838 52 79.8168 52 77.8838C52 75.9508 50.433 74.3838 48.5 74.3838C46.567 74.3838 45 75.9508 45 77.8838C45 79.8168 46.567 81.3838 48.5 81.3838Z" fill="#D3EC89"/>
<path d="M97 93.3838C92.5999 93.3838 89 89.7089 89 85.2171V80.5505C89 76.0587 92.5999 72.3838 97 72.3838C101.4 72.3838 105 76.0587 105 80.5505V85.2171C105 89.7089 101.4 93.3838 97 93.3838Z" fill="#D3EC89"/>
<path d="M98.125 72.3838C97.74 72.3838 97.3705 72.445 97 72.4998V83.8124C97 86.3369 99.0149 88.3838 101.5 88.3838C103.985 88.3838 106 86.3369 106 83.8124V80.3838C106 75.9837 102.456 72.3838 98.125 72.3838Z" fill="#D3EC89"/>
<path d="M97.5 81.3838C99.433 81.3838 101 79.8168 101 77.8838C101 75.9508 99.433 74.3838 97.5 74.3838C95.567 74.3838 94 75.9508 94 77.8838C94 79.8168 95.567 81.3838 97.5 81.3838Z" fill="#D3EC89"/>
<path d="M71 135.384C71.2164 135.31 71.4332 135.234 71.6505 135.156C72.8375 134.727 74.1625 134.727 75.3495 135.156C75.5668 135.234 75.7836 135.31 76 135.384V126.384H71.0003L71 135.384Z" fill="#D3EC89"/>
<path d="M72.4999 112.384C77.7466 112.384 82 115.778 82 119.965C82 124.002 78.0075 126.128 75.1259 127.7C73.4555 128.612 71.5445 128.612 69.8741 127.7C66.9926 126.128 63 124.002 63 119.965C62.9997 115.778 67.2531 112.384 72.4999 112.384Z" fill="#D3EC89"/>
<path d="M74.6656 128.476C71.8234 126.389 67.8854 123.566 67.8854 118.205C67.8854 116.448 68.3418 114.822 69.0783 113.384C65.5337 114.5 63 117.337 63 120.689C63 124.859 66.938 127.055 69.7802 128.678C71.4277 129.619 73.313 129.619 74.9603 128.678C74.9729 128.671 74.9871 128.663 75 128.655C74.8898 128.586 74.7738 128.556 74.6656 128.476Z" fill="#D3EC89"/>
<path d="M73 27.3838L68.4207 27.6126C36.0783 30.5089 8.79821 63.7696 0.106078 106.853C0.0704336 107.03 0.0350742 107.207 0 107.384C0 107.384 14.0157 92.9189 30.522 96.903C32.5859 38.3019 69.1669 27.3838 73 27.3838Z" fill="#D3EC89"/>
</svg>
