<svg width="146" height="147" viewBox="0 0 146 147" fill="none" xmlns="http://www.w3.org/2000/svg">
<g clip-path="url(#clip0_87_38)">
<path d="M73.001 4.01468C73.824 4.01439 74.6469 3.79596 75.3883 3.35939C77.669 2.01659 81.5822 0.383789 87.1282 0.383789C97.7699 0.383789 105.968 5.09342 105.968 5.09342L101.258 9.80305C106.32 11.153 109.206 11.9617 114.765 14.8748C134.318 25.1196 143.645 47.4804 143.645 47.4804H134.226C145.999 66.3192 145.999 92.2225 145.999 92.2225L138.935 89.8677C138.935 89.8677 138.935 111.061 129.516 125.19L122.451 120.481C122.451 120.481 115.387 132.255 103.612 139.319L98.9028 134.61C98.9028 134.61 87.1288 144.029 72.9996 146.384C58.8707 144.029 47.0963 134.61 47.0963 134.61L42.3867 139.319C30.6126 132.255 23.5479 120.481 23.5479 120.481L16.4834 125.19C7.06445 111.061 7.06445 89.8677 7.06445 89.8677L0 92.2225C0 92.2225 0 66.3192 11.7741 47.4807H2.35482C2.35482 47.4807 11.6814 25.1199 31.2343 14.8751C36.7942 11.962 39.6797 11.1533 44.7418 9.80334L40.0322 5.09371C40.0322 5.09371 48.2295 0.384074 58.8715 0.384074C64.4175 0.384074 68.3307 2.01688 70.6114 3.35996C71.3528 3.79653 72.1758 4.01496 72.9987 4.01525" fill="#BAECF3"/>
<path d="M53.3866 26.3549C53.3866 26.3549 60.1952 12.4524 71.6539 3.79995C71.2961 3.69188 70.9436 3.55529 70.6111 3.35967C68.3307 2.01659 64.4175 0.383789 58.8715 0.383789C48.2298 0.383789 40.0322 5.09342 40.0322 5.09342L44.7418 9.80305C39.6797 11.153 36.7942 11.9617 31.2342 14.8748C11.6814 25.1196 2.35482 47.4804 2.35482 47.4804H11.7741C0 66.3192 0 92.2225 0 92.2225L7.06445 89.8677C7.06445 89.8677 7.06445 111.061 16.4837 125.19L23.5482 120.481C23.5482 120.481 30.6126 132.255 42.387 139.319L47.0966 134.61C47.0966 134.61 58.8707 144.029 72.9999 146.384C72.9999 146.384 55.9273 139.319 53.3866 26.3549Z" fill="#BAECF3"/>
<path d="M117.709 14.5445C123.343 13.4618 128.504 17.999 127.961 23.6609C127.285 30.69 122.074 43.0853 114.934 50.3838L92 27.506C100.788 20.5923 111.703 15.6989 117.709 14.5445Z" fill="#BAECF3"/>
<path d="M98 33.3395C105.096 27.8787 115.585 20.695 118.491 20.4012C121.83 20.0634 123.911 24.7006 122.606 29.7052C121.472 34.0503 117.15 42.0203 112.846 48.3838L98 33.3395Z" fill="#BAECF3"/>
<path d="M29.2907 14.5445C23.6571 13.4618 18.4956 17.999 19.0395 23.6609C19.7148 30.69 24.9256 43.0853 32.066 50.3838L55 27.506C46.2123 20.5923 35.2973 15.6989 29.2907 14.5445Z" fill="#BAECF3"/>
<path d="M48 33.3395C40.9044 27.8787 30.4147 20.695 27.5095 20.4012C24.1704 20.0634 22.0887 24.7006 23.3942 29.7052C24.5275 34.0503 28.8504 42.0203 33.1538 48.3838L48 33.3395Z" fill="#BAECF3"/>
<path d="M101.835 28.7114C92.5158 21.4734 73.5001 33.4271 73.5001 33.4271C73.5001 33.4271 54.4845 21.4734 45.1651 28.7114C23.9138 45.2163 19.1913 92.3737 21.5526 101.805C23.2707 108.667 38.0812 120.668 54.61 125.384H92.39C108.919 120.668 123.729 108.668 125.447 101.805C127.809 92.3737 123.086 45.2163 101.835 28.7114Z" fill="#BAECF3"/>
<path d="M36.1869 116.026C34.364 104.676 38.675 54.3174 54 26.4077C50.7782 26.253 47.7066 26.8298 45.2877 28.7059C23.9286 45.2707 19.1822 92.5993 21.5554 102.065C22.5948 106.211 28.4207 112.22 36.5042 117.384C36.3823 116.922 36.2564 116.458 36.1869 116.026Z" fill="#BAECF3"/>
<path d="M125.449 89.9248C123.731 96.7988 108.92 108.82 92.3907 113.544H54.6093C38.0801 108.82 23.2689 96.7991 21.5506 89.9248C21.4431 89.4955 21.3562 88.963 21.279 88.3838C20.8115 94.5296 20.9513 99.367 21.5506 101.765C23.2689 108.639 38.0798 120.66 54.6093 125.384H92.3907C108.92 120.66 123.731 108.639 125.449 101.765C126.049 99.367 126.189 94.5296 125.721 88.3838C125.644 88.9627 125.557 89.4952 125.449 89.9248Z" fill="#BAECF3"/>
<path d="M53 121.53C54.2202 128.819 60.7243 134.384 68.5648 134.384H76.4503C84.2583 134.384 90.7414 128.865 92 121.62L72.5091 118.384L53 121.53Z" fill="#BAECF3"/>
<path d="M86.5625 99.3838C81.0535 99.3838 76.2319 101.634 73.5 105.009C70.7681 101.634 65.9462 99.3838 60.4375 99.3838C51.9116 99.3838 45 104.756 45 111.384C45 118.011 51.9116 123.384 60.4375 123.384C65.9465 123.384 70.7681 121.134 73.5 117.758C76.2319 121.134 81.0538 123.384 86.5625 123.384C95.0884 123.384 102 118.011 102 111.384C102 104.756 95.0887 99.3838 86.5625 99.3838Z" fill="#BAECF3"/>
<path d="M84.9786 125.384C80.8655 125.384 76.9912 123.988 73.7748 121.347C73.3195 120.972 72.6825 120.972 72.2227 121.347C69.0085 123.987 65.1343 125.384 61.0211 125.384C51.084 125.384 43 117.045 43 106.795C43 105.464 44.0532 104.384 45.3544 104.384C46.6555 104.384 47.7087 105.464 47.7087 106.795C47.7087 114.386 53.6798 120.561 61.0211 120.561C64.0514 120.561 66.907 119.533 69.2776 117.584C71.4712 115.785 74.5311 115.785 76.7201 117.584C79.093 119.532 81.9486 120.561 84.9789 120.561C92.3202 120.561 98.2913 114.386 98.2913 106.795C98.2913 105.464 99.3445 104.384 100.646 104.384C101.947 104.384 103 105.464 103 106.795C103 117.045 94.9157 125.384 84.9786 125.384Z" fill="#BAECF3"/>
<path d="M60.1338 103.656L65.199 107.687C69.7176 111.283 76.2827 111.283 80.8009 107.687L85.8662 103.656C88.1101 101.87 86.8017 98.3841 83.8803 98.3841C77.4111 98.3841 68.5891 98.3841 62.1197 98.3838C59.1982 98.3838 57.8899 101.87 60.1338 103.656Z" fill="#BAECF3"/>
<path d="M73.5 61.3838C72.118 61.3838 71 60.3264 71 59.0225V39.745C71 38.4412 72.1183 37.3838 73.5 37.3838C74.8817 37.3838 76 38.4412 76 39.745V59.0225C76 60.3264 74.882 61.3838 73.5 61.3838Z" fill="#BAECF3"/>
<path d="M49 84.3838C45.1341 84.3838 42 81.3137 42 77.5266V75.2409C42 71.4539 45.1341 68.3838 49 68.3838C52.8659 68.3838 56 71.4539 56 75.2409V77.5266C56.0003 81.3139 52.8662 84.3838 49 84.3838Z" fill="#BAECF3"/>
<path d="M49 68.3838V76.7838C49 78.772 50.567 80.3838 52.5 80.3838C54.433 80.3838 56 78.772 56 76.7838V75.5838C56.0003 71.6074 52.8662 68.3838 49 68.3838Z" fill="#BAECF3"/>
<path d="M49.5 76.3838C50.8807 76.3838 52 75.2645 52 73.8838C52 72.5031 50.8807 71.3838 49.5 71.3838C48.1193 71.3838 47 72.5031 47 73.8838C47 75.2645 48.1193 76.3838 49.5 76.3838Z" fill="#BAECF3"/>
<path d="M96 84.3838C92.1341 84.3838 89 81.3137 89 77.5266V75.2409C89 71.4539 92.1341 68.3838 96 68.3838C99.8659 68.3838 103 71.4539 103 75.2409V77.5266C103 81.3139 99.8659 84.3838 96 84.3838Z" fill="#BAECF3"/>
<path d="M97 68.3838V76.7838C97 78.772 98.567 80.3838 100.5 80.3838C102.433 80.3838 104 78.772 104 76.7838V75.5838C104 71.6074 100.866 68.3838 97 68.3838Z" fill="#BAECF3"/>
<path d="M96.5 76.3838C97.8807 76.3838 99 75.2645 99 73.8838C99 72.5031 97.8807 71.3838 96.5 71.3838C95.1193 71.3838 94 72.5031 94 73.8838C94 75.2645 95.1193 76.3838 96.5 76.3838Z" fill="#BAECF3"/>
<path d="M74.1809 107.348L69.1972 101.782C68.3665 100.855 68.0321 99.5949 68.0892 98.3838C65.9661 98.3838 63.9157 98.3838 62.0694 98.3838C59.1951 98.3838 57.9079 101.873 60.1153 103.661L65.0987 107.696C68.4915 110.443 73.0516 111.077 77 109.631C76.0085 109.04 75.0491 108.317 74.1809 107.348Z" fill="#BAECF3"/>
<path d="M21.5355 89.9425C21.4309 89.5083 21.3464 88.9696 21.2713 88.3838C20.8167 94.6003 20.9526 99.4932 21.5355 101.918C22.5413 106.104 28.1784 112.171 36 117.384C35.8821 116.918 35.7603 116.45 35.693 116.013C35.3426 113.737 35.2311 109.89 35.386 104.994C27.8853 99.8757 22.5146 94.0179 21.5355 89.9425Z" fill="#BAECF3"/>
</g>
<defs>
<clipPath id="clip0_87_38">
<rect width="146" height="146" fill="white" transform="translate(0 0.383789)"/>
</clipPath>
</defs>
</svg>
