<svg width="49" height="49" viewBox="0 0 49 49" fill="none" xmlns="http://www.w3.org/2000/svg">
<g clip-path="url(#clip0_106_1320)">
<g filter="url(#filter0_d_106_1320)">
<path d="M45.1646 25.0553C45.1346 23.8353 45.0446 22.5953 44.7746 21.4053C44.3346 19.4853 43.2946 17.9053 41.3146 17.2753C39.1446 16.5853 37.2046 17.2353 35.4546 18.5853C35.3646 18.6553 35.2846 18.7953 35.2846 18.8953C35.2746 20.2353 35.2746 21.5653 35.2746 22.8953C35.9146 22.7653 36.4846 22.5953 37.0646 22.5453C37.8446 22.4753 38.5746 22.6353 39.0246 23.3753C39.4746 24.1053 39.7546 24.9153 39.7646 25.7653C39.7946 29.0353 39.7946 32.3053 39.7646 35.5653C39.7546 37.0053 38.9946 37.9653 37.6546 38.4253C37.5446 38.4653 37.3846 38.6253 37.3846 38.7253C37.3746 40.3353 37.3946 41.9453 37.4046 43.5553C37.4046 43.8253 37.5146 43.9453 37.8146 43.9453C40.6646 43.9753 43.5246 42.0053 44.5146 39.2953C45.1946 37.4353 45.2746 35.4953 45.2646 33.5453C45.2446 30.7353 45.2446 27.8953 45.1646 25.0553ZM39.5246 10.4453C40.9146 10.2953 42.3146 10.1353 43.7046 9.98531C43.9346 9.96531 44.0546 9.90531 44.0546 9.64531C44.0446 8.02531 44.0546 6.39531 44.0546 4.69531C41.7846 4.95531 39.5946 5.19531 37.4146 5.45531C34.9146 5.74531 32.4646 6.05531 29.9646 6.32531C29.8846 7.35531 29.8046 8.43531 29.7346 9.48531C29.6946 10.1453 29.6646 10.8053 29.6346 11.5053C31.0246 11.3553 32.3546 11.2153 33.6846 11.0753C35.6346 10.8653 37.5846 10.6553 39.5246 10.4453ZM33.9846 27.0753C34.0546 24.2853 34.1146 21.4953 34.1946 18.7153C34.2346 17.1253 34.3046 15.5353 34.3446 13.9353C34.3546 13.4653 34.3446 12.9953 34.3446 12.5053C34.1146 12.5053 33.9546 12.4953 33.8046 12.5053C32.5646 12.5653 31.3246 12.6553 30.0746 12.6853C29.6346 12.6953 29.5346 12.8653 29.5246 13.2453C29.5046 14.1253 29.4646 14.9953 29.4346 15.8753C29.3046 19.3253 29.1746 22.7853 29.0546 26.2353C29.0346 26.6953 29.0546 27.1553 29.0546 27.6953C30.6346 27.6453 32.1446 27.5953 33.6646 27.5453C33.9846 27.5353 33.9746 27.3153 33.9846 27.0753ZM35.9146 38.3753C34.7246 38.2453 34.1046 37.0953 34.0646 35.9753C34.0146 34.6253 33.9846 33.2653 33.9646 31.9153C33.9646 31.5753 33.8646 31.4353 33.4946 31.4453C32.1746 31.4853 30.8446 31.5153 29.5146 31.5253C29.1546 31.5253 29.0946 31.6753 29.1046 31.9853C29.1246 32.8453 29.1146 33.7053 29.1446 34.5653C29.1846 35.8853 29.1346 37.2253 29.3446 38.5253C29.6146 40.1853 30.4246 41.6553 31.8346 42.6253C33.0846 43.4853 34.5546 43.8253 36.1646 44.0153C36.1646 42.1753 36.1646 40.4153 36.1546 38.6453C36.1646 38.5553 36.0146 38.3853 35.9146 38.3753ZM9.87456 34.5653C7.95456 34.4853 7.38456 33.8753 7.34456 31.9453C7.31456 30.4753 7.34456 29.0053 7.31456 27.5353C7.30456 26.9153 7.23456 26.2853 7.18456 25.6553H2.92456C2.92456 27.9353 2.81456 30.1253 2.94456 32.3053C3.22456 36.7753 5.61456 39.2853 9.81456 39.7953C10.4046 39.8653 10.6246 39.7053 10.6046 39.1153C10.5746 37.8453 10.5846 36.5653 10.6046 35.2953C10.6146 34.7453 10.4046 34.5853 9.87456 34.5653ZM2.89456 23.9653H7.20456C7.20456 22.6853 7.18456 21.4653 7.20456 20.2453C7.25456 17.7553 7.95456 16.9853 10.4046 16.6853C10.4546 16.6753 10.4946 16.6253 10.5946 16.5653V12.4953C7.67456 12.1653 4.46456 14.2153 3.41456 17.0653C2.57456 19.3153 3.01456 21.6453 2.89456 23.9653ZM20.5746 18.7253C20.5846 19.6353 20.5846 20.5553 20.5946 21.4653C20.5946 22.0853 20.5946 22.7053 20.5946 23.3153H25.4946C25.4946 21.2053 25.5846 19.2053 25.4646 17.2253C25.3646 15.4553 24.5046 14.0053 22.9746 13.0253C21.4046 12.0153 19.6546 11.8653 17.8546 12.0153C17.6846 12.0253 17.4146 12.2953 17.4046 12.4553C17.3646 13.7453 17.3846 15.0453 17.3846 16.3753C17.7646 16.3953 18.0346 16.4153 18.3046 16.4253C19.9446 16.4853 20.5546 17.0953 20.5746 18.7253ZM11.4946 44.1053H16.3546V7.64531C14.6846 7.82531 13.0946 7.99531 11.4946 8.16531V44.1053ZM25.5346 25.0553C24.1046 25.0553 22.7846 25.0753 21.4646 25.0453C20.8446 25.0253 20.6446 25.2453 20.6446 25.8653C20.6646 27.6153 20.6046 29.3553 20.6146 31.1053C20.6246 33.3353 19.7646 34.5453 17.6346 34.7553C17.5646 34.7653 17.4946 34.8253 17.4346 34.8553V39.4153C21.6246 39.6453 24.3046 37.4153 25.1546 34.1853C25.9646 31.1853 25.3546 28.1353 25.5346 25.0553Z" fill="url(#paint0_linear_106_1320)"/>
</g>
</g>
<defs>
<filter id="filter0_d_106_1320" x="-1.1189" y="4.69531" width="50.3843" height="47.4102" filterUnits="userSpaceOnUse" color-interpolation-filters="sRGB">
<feFlood flood-opacity="0" result="BackgroundImageFix"/>
<feColorMatrix in="SourceAlpha" type="matrix" values="0 0 0 0 0 0 0 0 0 0 0 0 0 0 0 0 0 0 127 0" result="hardAlpha"/>
<feOffset dy="4"/>
<feGaussianBlur stdDeviation="2"/>
<feComposite in2="hardAlpha" operator="out"/>
<feColorMatrix type="matrix" values="0 0 0 0 0 0 0 0 0 0 0 0 0 0 0 0 0 0 0.25 0"/>
<feBlend mode="normal" in2="BackgroundImageFix" result="effect1_dropShadow_106_1320"/>
<feBlend mode="normal" in="SourceGraphic" in2="effect1_dropShadow_106_1320" result="shape"/>
</filter>
<linearGradient id="paint0_linear_106_1320" x1="5.49986" y1="24.399" x2="45.5726" y2="24.399" gradientUnits="userSpaceOnUse">
<stop offset="0.0344" stop-color="#273580"/>
<stop offset="0.2149" stop-color="#46317C"/>
<stop offset="0.6071" stop-color="#942673"/>
<stop offset="0.8615" stop-color="#CA1E6D"/>
</linearGradient>
<clipPath id="clip0_106_1320">
<rect width="48" height="48" fill="white" transform="translate(0.164551 0.325195)"/>
</clipPath>
</defs>
</svg>
