<svg width="61" height="61" viewBox="0 0 61 61" fill="none" xmlns="http://www.w3.org/2000/svg">
<path d="M30.602 15.2683C22.1483 15.2683 15.7067 21.708 15.7067 30.1636C15.7067 38.6191 22.1483 45.0589 30.602 45.0589C39.0557 45.0589 45.4973 38.6191 45.4973 30.1636C45.4973 21.708 39.0557 15.2683 30.602 15.2683ZM30.602 40.0938C25.139 40.0938 20.6718 35.6411 20.6718 30.1636C20.6718 24.6861 25.1257 20.2334 30.602 20.2334C36.0783 20.2334 40.5322 24.6861 40.5322 30.1636C40.5322 35.6411 36.065 40.0938 30.602 40.0938ZM50.4624 15.2683C50.4624 17.2492 47.4645 17.7508 45.4973 17.7508C43.5168 17.7508 43.0148 17.2359 43.0148 15.2683C43.0148 13.3006 43.5301 10.3032 45.4973 10.3032C47.4645 10.3032 50.4624 13.3006 50.4624 15.2683ZM60.3926 17.7508C60.1666 12.9779 58.9233 8.82134 55.4275 5.33807C51.945 1.8548 47.7866 0.612278 43.0148 0.372969C38.0967 0.0937759 23.1073 0.0937759 18.1893 0.372969C13.4307 0.598983 9.27229 1.8548 5.7765 5.33807C2.28072 8.82134 1.05065 12.9779 0.811399 17.7508C0.532268 22.6699 0.532268 37.6572 0.811399 42.5763C1.03736 47.3492 2.28072 51.5058 5.7765 54.9891C9.27229 58.4723 13.4174 59.7149 18.1893 59.9542C23.1073 60.2334 38.0967 60.2334 43.0148 59.9542C47.7866 59.7282 51.945 58.4856 55.4275 54.9891C58.91 51.5058 60.1534 47.3492 60.3926 42.5763C60.6717 37.6572 60.6717 22.6699 60.3926 17.7508ZM52.945 47.5414C51.9082 50.1472 50.5984 51.4562 47.9799 52.5065C44.0587 54.062 34.9352 54.9891 30.602 54.9891C26.2688 54.9891 17.132 54.0487 13.2242 52.5065C10.6189 51.4695 9.30912 50.1605 8.25905 47.5414C6.70389 43.6194 5.7765 34.4977 5.7765 30.1636C5.7765 25.8294 6.71718 16.6944 8.25905 12.7857C9.29582 10.1799 10.6056 8.87092 13.2242 7.82062C17.1453 6.26511 26.2688 5.33807 30.602 5.33807C34.9352 5.33807 44.072 6.27841 47.9799 7.82062C50.5851 8.85763 51.8949 10.1666 52.945 12.7857C54.5001 16.7077 55.4275 25.8294 55.4275 30.1636C55.4275 34.4977 54.5001 43.6327 52.945 47.5414Z" fill="url(#paint0_linear_106_1281)"/>
<defs>
<linearGradient id="paint0_linear_106_1281" x1="0.602051" y1="9.54892" x2="66.31" y2="30.8443" gradientUnits="userSpaceOnUse">
<stop stop-color="#97B1FF"/>
<stop offset="0.4875" stop-color="#4F79FC"/>
<stop offset="1" stop-color="#FD56F6"/>
</linearGradient>
</defs>
</svg>
