<svg width="32" height="33" viewBox="0 0 32 33" fill="none" xmlns="http://www.w3.org/2000/svg">
<path d="M16.0005 8.72381C11.4918 8.72381 8.0563 12.1583 8.0563 16.668C8.0563 21.1776 11.4918 24.6121 16.0005 24.6121C20.5091 24.6121 23.9446 21.1776 23.9446 16.668C23.9446 12.1583 20.5091 8.72381 16.0005 8.72381ZM16.0005 21.9641C13.0869 21.9641 10.7044 19.5893 10.7044 16.668C10.7044 13.7466 13.0798 11.3719 16.0005 11.3719C18.9212 11.3719 21.2966 13.7466 21.2966 16.668C21.2966 19.5893 18.9141 21.9641 16.0005 21.9641ZM26.5927 8.72381C26.5927 9.78031 24.9938 10.0478 23.9446 10.0478C22.8884 10.0478 22.6206 9.77322 22.6206 8.72381C22.6206 7.6744 22.8954 6.07575 23.9446 6.07575C24.9938 6.07575 26.5927 7.6744 26.5927 8.72381ZM31.8888 10.0478C31.7683 7.5023 31.1052 5.28544 29.2407 3.4277C27.3834 1.56996 25.1656 0.907277 22.6206 0.779646C19.9977 0.630743 12.0033 0.630743 9.38033 0.779646C6.84245 0.900187 4.62461 1.56996 2.76019 3.4277C0.895776 5.28544 0.239744 7.5023 0.112141 10.0478C-0.0367292 12.6714 -0.0367292 20.6646 0.112141 23.2881C0.232655 25.8336 0.895776 28.0505 2.76019 29.9082C4.62461 31.766 6.83536 32.4287 9.38033 32.5563C12.0033 32.7052 19.9977 32.7052 22.6206 32.5563C25.1656 32.4358 27.3834 31.7731 29.2407 29.9082C31.0981 28.0505 31.7612 25.8336 31.8888 23.2881C32.0377 20.6646 32.0377 12.6714 31.8888 10.0478ZM27.9167 25.9362C27.3638 27.3259 26.6652 28.0241 25.2687 28.5842C23.1774 29.4138 18.3115 29.9082 16.0005 29.9082C13.6894 29.9082 8.81645 29.4067 6.73228 28.5842C5.34282 28.0311 4.64426 27.333 4.08422 25.9362C3.2548 23.8444 2.76019 18.9795 2.76019 16.668C2.76019 14.3564 3.26189 9.48443 4.08422 7.39978C4.63717 6.01002 5.33573 5.31189 6.73228 4.75173C8.82354 3.92212 13.6894 3.4277 16.0005 3.4277C18.3115 3.4277 23.1845 3.92921 25.2687 4.75173C26.6581 5.3048 27.3567 6.00293 27.9167 7.39978C28.7461 9.49152 29.2407 14.3564 29.2407 16.668C29.2407 18.9795 28.7461 23.8515 27.9167 25.9362Z" fill="white"/>
</svg>
