<svg width="24" height="24" viewBox="0 0 24 24" fill="none" xmlns="http://www.w3.org/2000/svg">
<path d="M23.5332 19.0838L20.8725 17.3099L18.5073 15.7334C18.0509 15.4297 17.4374 15.5293 17.1004 15.9618L15.6369 17.8433C15.3225 18.2516 14.757 18.3689 14.3061 18.1193C13.313 17.5669 12.1387 17.0468 9.5476 14.4523C6.95648 11.8579 6.43304 10.6868 5.88063 9.69377C5.63102 9.24293 5.74835 8.67739 6.15662 8.36305L8.03811 6.89949C8.47061 6.56256 8.57022 5.94911 8.26652 5.4926L6.73842 3.20021L4.9161 0.466682C4.60593 0.0014072 3.98503 -0.138279 3.50551 0.149296L1.40386 1.41012C0.835885 1.74476 0.418376 2.28513 0.237817 2.9192C-0.336908 5.01462 -0.452781 9.63705 6.95522 17.0451C14.3632 24.4531 18.9852 24.3369 21.0806 23.7621C21.7147 23.5816 22.2551 23.1641 22.5897 22.596L23.8505 20.4944C24.1381 20.0149 23.9984 19.394 23.5332 19.0838Z" fill="url(#paint0_linear_315_145)"/>
<path d="M13.4 3.79999C17.1537 3.80416 20.1958 6.84616 20.2 10.6C20.2 10.8209 20.379 11 20.6 11C20.8209 11 21 10.8209 21 10.6C20.9954 6.40455 17.5955 3.00462 13.4 3C13.1791 3 13 3.17907 13 3.40002C13 3.62087 13.179 3.79999 13.4 3.79999Z" fill="url(#paint1_linear_315_145)"/>
<path d="M13.4286 5.85717C16.0307 5.86023 18.1393 7.96909 18.1424 10.5714C18.1424 10.8081 18.3342 11 18.5709 11C18.8076 11 18.9995 10.8081 18.9995 10.5714C18.9959 7.49588 16.5039 5.00354 13.4286 5C13.1919 5 13 5.19186 13 5.42859C13 5.66531 13.1918 5.85717 13.4286 5.85717Z" fill="url(#paint2_linear_315_145)"/>
<path d="M13.375 8.74999C14.41 8.75122 15.2487 9.58995 15.25 10.625C15.25 10.8321 15.4179 11 15.625 11C15.8321 11 16 10.8321 16 10.625C15.9983 9.17594 14.8241 8.00166 13.375 8C13.1679 8 13 8.16788 13 8.37502C13 8.58211 13.1678 8.74999 13.375 8.74999Z" fill="url(#paint3_linear_315_145)"/>
<defs>
<linearGradient id="paint0_linear_315_145" x1="11.9999" y1="0" x2="11.9999" y2="24" gradientUnits="userSpaceOnUse">
<stop stop-color="#CC60FF"/>
<stop offset="1" stop-color="#8700C7"/>
</linearGradient>
<linearGradient id="paint1_linear_315_145" x1="17" y1="3" x2="17" y2="11" gradientUnits="userSpaceOnUse">
<stop stop-color="#CC60FF"/>
<stop offset="1" stop-color="#8700C7"/>
</linearGradient>
<linearGradient id="paint2_linear_315_145" x1="15.9997" y1="5" x2="15.9997" y2="11" gradientUnits="userSpaceOnUse">
<stop stop-color="#CC60FF"/>
<stop offset="1" stop-color="#8700C7"/>
</linearGradient>
<linearGradient id="paint3_linear_315_145" x1="14.5" y1="8" x2="14.5" y2="11" gradientUnits="userSpaceOnUse">
<stop stop-color="#CC60FF"/>
<stop offset="1" stop-color="#8700C7"/>
</linearGradient>
</defs>
</svg>
