<svg width="95" height="96" viewBox="0 0 95 96" fill="none" xmlns="http://www.w3.org/2000/svg">
<g opacity="0.7" clip-path="url(#clip0_90_146)">
<path d="M76.8192 38.4522C74.955 39.3625 72.9234 40.1235 70.7614 40.6954C70.6012 40.7381 70.4403 40.778 70.2794 40.8186C65.6538 41.9746 61.1362 42.0819 57.2448 41.3158C51.3638 40.1547 46.9172 36.9961 45.709 32.4313C44.1145 26.4076 48.627 19.7257 56.3315 15.6097C57.3107 15.0885 58.1218 14.3369 58.7118 13.436C59.3003 12.5394 59.6678 11.4936 59.7576 10.389C60.0555 6.73677 57.4426 3.48536 53.8078 3.00337C48.8256 2.33947 41.5951 2.00389 34.4559 3.89414C10.4726 10.2433 -3.71229 35.4733 2.31072 59.5399C8.5845 84.6068 34.1341 99.6187 59.0314 92.9934C79.4799 87.5531 93.1647 68.9593 93.3546 48.6797C93.356 48.5173 93.3524 48.3376 93.3415 48.139C92.8943 39.9778 84.1657 34.8652 76.8192 38.4522ZM74.8557 66.6327C71.2782 67.58 67.6136 65.4499 66.6678 61.8745C65.7205 58.2969 67.8506 54.6324 71.4282 53.6858C75.0036 52.7392 78.6681 54.8694 79.6147 58.447C80.5613 62.0216 78.4311 65.6862 74.8557 66.6327Z" fill="#E5E9EA"/>
<path d="M62.8693 76.8235C62.8693 81.3418 59.2069 85.0042 54.6885 85.0042C50.1702 85.0042 46.5078 81.3418 46.5078 76.8235C46.5078 72.3051 50.1702 68.642 54.6885 68.642C59.2069 68.642 62.8693 72.3051 62.8693 76.8235Z" fill="#42C0E2"/>
<path d="M39.8839 71.1303C39.8839 75.6486 36.2208 79.311 31.7032 79.311C27.1848 79.311 23.5217 75.6486 23.5217 71.1303C23.5217 66.6119 27.1848 62.9488 31.7032 62.9488C36.2208 62.9488 39.8839 66.6119 39.8839 71.1303Z" fill="#49BD90"/>
<path d="M26.2861 51.1731C26.2861 55.6915 22.6238 59.3538 18.1054 59.3538C13.5871 59.3538 9.92395 55.6915 9.92395 51.1731C9.92395 46.6547 13.5871 42.9916 18.1054 42.9916C22.6238 42.9916 26.2861 46.6547 26.2861 51.1731Z" fill="#FA70B2"/>
<path d="M33.1159 28.1174C33.1159 32.6358 29.4528 36.2989 24.9344 36.2989C20.416 36.2989 16.7537 32.6358 16.7537 28.1174C16.7537 23.5991 20.416 19.9367 24.9344 19.9367C29.4528 19.9367 33.1159 23.5991 33.1159 28.1174Z" fill="#FFD061"/>
<path d="M88.4456 37.9274L87.0699 55.5718L84.149 93.0117C84.091 93.7676 83.5844 94.4395 82.8074 94.9222C82.0319 95.4049 80.9802 95.697 79.8307 95.6919C77.5324 95.6825 75.6421 94.4866 75.5378 92.9754L72.9321 55.5123L71.7043 37.8571L88.4456 37.9274Z" fill="#FFD061"/>
<path d="M81.9065 95.3498C80.3924 94.9418 79.3038 93.9821 79.2241 92.8449L76.4256 37.8774L71.7043 37.8571L72.9329 55.5116L75.5378 92.9747C75.6421 94.4859 77.5331 95.6818 79.8307 95.6912C80.5809 95.6948 81.2912 95.5716 81.9065 95.3498Z" fill="#EF8930"/>
<path d="M87.0699 55.5718L88.4456 37.9274L76.4256 37.8774L71.7036 37.8571L72.9329 55.5123L77.3244 55.5305L87.0699 55.5718Z" fill="#3E4B5C"/>
<path d="M71.7039 37.8579C64.0428 34.4144 63.2383 22.8975 70.0897 16.1033C76.9412 9.30907 79.9433 5.2814 79.9621 0.692017C79.9621 0.692017 104.655 25.9808 88.4458 37.9282L71.7039 37.8579Z" fill="#FA70B2"/>
<path d="M78.6357 37.8862L71.7037 37.8572C64.0434 34.413 63.2381 22.896 70.0896 16.1047C76.9418 9.3098 79.9432 5.28068 79.962 0.692017C82.4416 14.3558 68.69 22.4481 78.6357 37.8862Z" fill="#DD215B"/>
<path d="M77.3244 55.5305L76.4256 37.8774L71.7036 37.8571L72.9329 55.5123L77.3244 55.5305Z" fill="#243142"/>
</g>
<defs>
<clipPath id="clip0_90_146">
<rect width="95" height="95" fill="white" transform="translate(0 0.692017)"/>
</clipPath>
</defs>
</svg>
