<svg width="95" height="96" viewBox="0 0 95 96" fill="none" xmlns="http://www.w3.org/2000/svg">
<g opacity="0.7" clip-path="url(#clip0_90_131)">
<path d="M41.8898 78.0197C41.8898 85.126 35.3446 91.1104 27.3032 91.1104C19.2618 91.1104 12.7166 85.3131 12.7166 78.0197C12.7166 70.7264 19.2618 63.9942 27.3032 66.7994C36.8405 64.181 41.8898 70.9135 41.8898 78.0197Z" fill="#E87272"/>
<path d="M83.5926 82.6949C86.3977 79.7028 87.1458 75.9627 86.0237 72.5965C84.9015 69.2303 80.4134 61.937 77.4214 65.3032C73.3073 69.9784 65.2659 67.1732 56.8504 65.6772C51.6142 64.7421 46.1909 66.9862 43.386 71.4745C41.89 73.9056 40.5808 76.1497 40.2068 77.2719C39.4587 80.077 37.4016 85.1262 32.9135 86.2482C37.4016 85.1261 42.2638 88.3052 44.8819 90.1753C46.939 91.8583 49.3701 93.1674 52.1752 93.7285C64.5176 96.9075 77.4212 89.4272 83.5926 82.6949Z" fill="#6FDE83"/>
<path d="M32.1654 89.4272C31.4173 89.4272 30.6694 88.8661 30.2954 88.1182C29.9213 87.1831 30.6694 86.0611 31.6044 85.8741L70.502 74.8407C71.4371 74.4667 72.559 75.2148 72.7461 76.1497C73.1201 77.0848 72.372 78.2068 71.4371 78.3938L32.7265 89.4272C32.5395 89.4272 32.3524 89.4272 32.1654 89.4272Z" fill="#999999"/>
<path d="M52.1753 14.25C53.8583 12.941 55.1674 10.8838 55.1674 8.63972C55.1674 4.89965 52.1753 1.72046 48.2482 1.72046C44.5081 1.72046 41.3289 4.71263 41.3289 8.63972C41.3289 10.8838 42.451 12.9409 44.3211 14.25C23.0018 16.3071 6.17114 34.2599 6.17114 56.1398H90.3246C90.3248 34.2599 73.6811 16.3071 52.1753 14.25Z" fill="#83C7FF"/>
<path d="M8.41544 94.6634H86.5847C91.2599 94.6634 95.0002 90.9233 95.0002 86.2479V84.752H0V86.2479C0 90.9231 3.74007 94.6634 8.41544 94.6634Z" fill="#3EAFCE"/>
</g>
<defs>
<clipPath id="clip0_90_131">
<rect width="95" height="95" fill="white" transform="translate(0 0.691895)"/>
</clipPath>
</defs>
</svg>
