<svg width="95" height="96" viewBox="0 0 95 96" fill="none" xmlns="http://www.w3.org/2000/svg">
<g opacity="0.7" clip-path="url(#clip0_90_161)">
<path d="M61.416 73.2408V90.1256L66.9824 95.692H95V73.2408H61.416Z" fill="#FF641A"/>
<path d="M0 67.6744V95.692H28.0176L33.584 90.1256V67.6744H0Z" fill="#76E2F8"/>
<path d="M66.9824 56.5416V95.692H28.0176V56.5416H39.1504L44.7168 62.108H50.2832L55.8496 56.5416H66.9824Z" fill="#FFDA2D"/>
<path d="M66.9824 56.5416V95.692H47.5V62.108H50.2832L55.8496 56.5416H66.9824Z" fill="#FDBF00"/>
<path d="M44.7168 25.7408H50.2832V36.8737H44.7168V25.7408Z" fill="#FDBF00"/>
<path d="M47.5 25.7408H50.2832V36.8737H47.5V25.7408Z" fill="#FF9100"/>
<path d="M54.792 34.0905H40.2078L31.8582 50.9752H63.1417L54.792 34.0905Z" fill="#766E6E"/>
<path d="M22.6497 23.9905L15.5583 6.25842H30.8007V11.8248H23.7775L27.8189 21.9248L22.6497 23.9905Z" fill="#FDBF00"/>
<path d="M72.3502 23.9905L67.181 21.9248L71.2225 11.8248H64.1992V6.25842H79.4416L72.3502 23.9905Z" fill="#FF9100"/>
<path d="M54.7921 34.0905L63.1417 50.9752H47.5V34.0905H54.7921Z" fill="#5B5555"/>
<path d="M28.0176 0.692017V9.04163C28.0176 19.7845 36.7571 28.524 47.5 28.524C58.2429 28.524 66.9824 19.7845 66.9824 9.04163V0.692017H28.0176Z" fill="#FFDA2D"/>
<path d="M66.9824 0.692017V9.04163C66.9824 19.7845 58.2429 28.524 47.5 28.524V0.692017H66.9824Z" fill="#FDBF00"/>
<path d="M39.1504 56.5416V80.533L47.5 76.3582L55.8496 80.533V56.5416H39.1504Z" fill="#FF9100"/>
<path d="M55.8496 56.5416V80.533L47.5 76.3582V56.5416H55.8496Z" fill="#FF641A"/>
</g>
<defs>
<clipPath id="clip0_90_161">
<rect width="95" height="95" fill="white" transform="translate(0 0.692017)"/>
</clipPath>
</defs>
</svg>
