<svg width="95" height="96" viewBox="0 0 95 96" fill="none" xmlns="http://www.w3.org/2000/svg">
<g opacity="0.7">
<path d="M58.4844 33.3483H74.2188L83.125 42.2545V33.3483H89.0625C89.8499 33.3483 90.605 33.0355 91.1617 32.4787C91.7185 31.922 92.0312 31.1669 92.0312 30.3795V6.62952C92.0312 5.84216 91.7185 5.08704 91.1617 4.53029C90.605 3.97354 89.8499 3.66077 89.0625 3.66077H50.4688C49.6814 3.66077 48.9263 3.97354 48.3695 4.53029C47.8128 5.08704 47.5 5.84216 47.5 6.62952V8.04413C54.6873 12.3488 59.375 19.4189 59.375 27.4108C59.3748 29.4232 59.0747 31.4244 58.4844 33.3483Z" fill="#F4A93C"/>
<path d="M87.5781 3.66077H50.4688C49.6814 3.66077 48.9263 3.97354 48.3695 4.53029C47.8128 5.08704 47.5 5.84216 47.5 6.62952V8.04413C54.2391 12.0801 58.7813 18.5476 59.3201 25.9264H87.5781V3.66077Z" fill="#F6B940"/>
<path d="M10.3505 43.3901C8.07387 41.3886 6.24102 38.933 4.96974 36.1811C3.69847 33.4292 3.01687 30.4418 2.96875 27.4108C2.96875 14.2933 15.5963 3.66077 31.1719 3.66077C46.7474 3.66077 59.375 14.2933 59.375 27.4108C59.375 40.5282 46.7474 51.1608 31.1719 51.1608C26.8127 51.1696 22.4966 50.2987 18.482 48.6002L7.42188 54.1295L10.3505 43.3901Z" fill="#6BC13B"/>
<path d="M63.8281 11.0826H81.6406V14.0514H63.8281V11.0826Z" fill="#F2F2F2"/>
<path d="M54.4884 14.0514H60.8594V11.0826H51.6384C52.6681 11.9925 53.6213 12.9854 54.4884 14.0514Z" fill="#F2F2F2"/>
<path d="M57.9619 19.9889H87.5781V17.0201H56.5265C57.0799 17.9717 57.5598 18.9642 57.9619 19.9889Z" fill="#F2F2F2"/>
<path d="M59.32 25.9264H87.5781V22.9576H58.8777C59.0988 23.9348 59.2466 24.9272 59.32 25.9264Z" fill="#F2F2F2"/>
<path d="M81.6406 63.0358C81.6406 49.9183 69.013 39.2858 53.4375 39.2858C37.862 39.2858 25.2344 49.9183 25.2344 63.0358C25.2344 76.1532 37.862 86.7858 53.4375 86.7858C56.5169 86.7846 59.5809 86.3509 62.5397 85.4973L69.7656 92.7233V82.3772C76.9441 78.0725 81.6406 71.0232 81.6406 63.0358Z" fill="#3B5892"/>
<path d="M77.1875 60.067C77.1252 56.7715 76.3245 53.5319 74.8443 50.5869C73.364 47.6419 71.242 45.0664 68.6345 43.0502C63.9594 40.5546 58.737 39.261 53.4375 39.2858C37.862 39.2858 25.2344 49.9184 25.2344 63.0358C25.2966 66.3313 26.0974 69.5709 27.5776 72.5159C29.0578 75.4609 31.1798 78.0364 33.7873 80.0527C38.4626 82.5481 43.6849 83.8417 48.9844 83.817C64.5599 83.817 77.1875 73.1845 77.1875 60.067Z" fill="#4C6CB5"/>
<path d="M17.8125 30.3795C17.2253 30.3795 16.6514 30.2054 16.1632 29.8792C15.6749 29.553 15.2944 29.0893 15.0697 28.5469C14.845 28.0044 14.7862 27.4075 14.9008 26.8316C15.0153 26.2557 15.2981 25.7267 15.7133 25.3115C16.1285 24.8964 16.6574 24.6136 17.2333 24.4991C17.8092 24.3845 18.4061 24.4433 18.9486 24.668C19.4911 24.8927 19.9547 25.2732 20.2809 25.7614C20.6071 26.2496 20.7813 26.8236 20.7813 27.4108C20.7813 28.1981 20.4685 28.9532 19.9117 29.51C19.355 30.0667 18.5999 30.3795 17.8125 30.3795Z" fill="#F2F2F2"/>
<path d="M26.7188 30.3795C26.1316 30.3795 25.5576 30.2054 25.0694 29.8792C24.5812 29.553 24.2007 29.0893 23.976 28.5469C23.7513 28.0044 23.6925 27.4075 23.807 26.8316C23.9216 26.2557 24.2043 25.7267 24.6195 25.3115C25.0347 24.8964 25.5637 24.6136 26.1396 24.4991C26.7155 24.3845 27.3124 24.4433 27.8548 24.668C28.3973 24.8927 28.861 25.2732 29.1872 25.7614C29.5134 26.2496 29.6875 26.8236 29.6875 27.4108C29.6875 28.1981 29.3747 28.9532 28.818 29.51C28.2612 30.0667 27.5061 30.3795 26.7188 30.3795Z" fill="#F2F2F2"/>
<path d="M35.625 30.3795C35.0378 30.3795 34.4639 30.2054 33.9757 29.8792C33.4874 29.553 33.1069 29.0893 32.8822 28.5469C32.6575 28.0044 32.5987 27.4075 32.7133 26.8316C32.8278 26.2557 33.1106 25.7267 33.5258 25.3115C33.941 24.8964 34.4699 24.6136 35.0458 24.4991C35.6217 24.3845 36.2186 24.4433 36.7611 24.668C37.3036 24.8927 37.7672 25.2732 38.0934 25.7614C38.4196 26.2496 38.5938 26.8236 38.5938 27.4108C38.5938 28.1981 38.281 28.9532 37.7242 29.51C37.1675 30.0667 36.4124 30.3795 35.625 30.3795Z" fill="#F2F2F2"/>
<path d="M44.5312 30.3795C43.9441 30.3795 43.3701 30.2054 42.8819 29.8792C42.3937 29.553 42.0132 29.0893 41.7885 28.5469C41.5638 28.0044 41.505 27.4075 41.6195 26.8316C41.7341 26.2557 42.0168 25.7267 42.432 25.3115C42.8472 24.8964 43.3762 24.6136 43.9521 24.4991C44.528 24.3845 45.1249 24.4433 45.6673 24.668C46.2098 24.8927 46.6735 25.2732 46.9997 25.7614C47.3259 26.2496 47.5 26.8236 47.5 27.4108C47.5 28.1981 47.1872 28.9532 46.6305 29.51C46.0737 30.0667 45.3186 30.3795 44.5312 30.3795Z" fill="#F2F2F2"/>
<path d="M38.5938 55.6139H62.3438V58.5826H38.5938V55.6139Z" fill="white"/>
<path d="M65.3125 55.6139H74.2188V58.5826H65.3125V55.6139Z" fill="white"/>
<path d="M32.6562 61.5514H74.2188V64.5201H32.6562V61.5514Z" fill="white"/>
<path d="M32.6562 67.4889H74.2188V70.4576H32.6562V67.4889Z" fill="white"/>
</g>
</svg>
