<svg width="95" height="96" viewBox="0 0 95 96" fill="none" xmlns="http://www.w3.org/2000/svg">
<path d="M47.5 95.692C73.7335 95.692 95 74.4255 95 48.192C95 21.9585 73.7335 0.692017 47.5 0.692017C21.2665 0.692017 0 21.9585 0 48.192C0 74.4255 21.2665 95.692 47.5 95.692Z" fill="#FFEA80"/>
<path d="M95 48.192C95 22.1023 73.5897 0.692017 47.5 0.692017V95.692C73.5897 95.692 95 74.2818 95 48.192Z" fill="#FFCC66"/>
<path d="M47.5 84.3737C67.4826 84.3737 83.6816 68.1746 83.6816 48.192C83.6816 28.2094 67.4826 12.0104 47.5 12.0104C27.5174 12.0104 11.3184 28.2094 11.3184 48.192C11.3184 68.1746 27.5174 84.3737 47.5 84.3737Z" fill="#FFCC66"/>
<path d="M83.6816 48.192C83.6816 28.242 67.45 12.0104 47.5 12.0104V84.3737C67.45 84.3737 83.6816 68.142 83.6816 48.192Z" fill="#FFA54D"/>
<path d="M69.3606 41.0872L54.2569 38.8939L47.5 25.2035L40.7431 38.8939L25.6394 41.0872L36.5683 51.7445L33.989 66.7911L47.5 59.6863L61.0109 66.7911L58.4317 51.7445L69.3606 41.0872Z" fill="#FFEA80"/>
<path d="M58.4317 51.7445L69.3606 41.0872L54.2569 38.8939L47.5 25.2035V59.6863L61.011 66.7911L58.4317 51.7445Z" fill="#FFCC66"/>
</svg>
