<svg width="97" height="95" viewBox="0 0 97 95" fill="none" xmlns="http://www.w3.org/2000/svg">
<path d="M91.0899 42.1596C93.4228 45.3806 93.4228 49.7359 91.0899 52.957L66.2834 87.2072C63.9397 90.4431 59.776 91.7972 55.9773 90.5591L15.8755 77.4884C12.0875 76.2537 9.52398 72.7219 9.52398 68.7378L9.52399 26.3787C9.52399 22.3946 12.0875 18.8628 15.8755 17.6281L55.9773 4.55744C59.776 3.31928 63.9397 4.67346 66.2834 7.90933L91.0899 42.1596Z" fill="#D3EC89"/>
<g filter="url(#filter0_d_91_433)">
<path d="M69.4688 45.1055C69.1355 44.293 69.0626 43.5013 69.2501 42.7305C69.4584 41.9596 69.9376 41.3346 70.6876 40.8555L78.6876 36.0742C79.6459 35.5117 80.6667 35.2305 81.7501 35.2305C84.3959 35.2305 85.7188 36.2305 85.7188 38.2305V72.6055H90.3751C92.1667 72.6055 93.0626 73.8867 93.0626 76.4492C93.0626 79.0117 92.1667 80.293 90.3751 80.293H73.3751C71.5834 80.293 70.6876 79.0117 70.6876 76.4492C70.6876 73.8867 71.5834 72.6055 73.3751 72.6055H77.7813V44.2617C77.0521 44.8451 76.3646 45.2513 75.7188 45.4805L72.8438 46.7617C72.2188 47.0326 71.573 47.0013 70.9063 46.668C70.2396 46.3346 69.7605 45.8138 69.4688 45.1055Z" fill="white"/>
</g>
<defs>
<filter id="filter0_d_91_433" x="67.7271" y="33.9888" width="29.0604" height="50.0291" filterUnits="userSpaceOnUse" color-interpolation-filters="sRGB">
<feFlood flood-opacity="0" result="BackgroundImageFix"/>
<feColorMatrix in="SourceAlpha" type="matrix" values="0 0 0 0 0 0 0 0 0 0 0 0 0 0 0 0 0 0 127 0" result="hardAlpha"/>
<feOffset dx="1.24166" dy="1.24166"/>
<feGaussianBlur stdDeviation="1.24166"/>
<feComposite in2="hardAlpha" operator="out"/>
<feColorMatrix type="matrix" values="0 0 0 0 0 0 0 0 0 0 0 0 0 0 0 0 0 0 0.25 0"/>
<feBlend mode="normal" in2="BackgroundImageFix" result="effect1_dropShadow_91_433"/>
<feBlend mode="normal" in="SourceGraphic" in2="effect1_dropShadow_91_433" result="shape"/>
</filter>
</defs>
</svg>
