<svg width="97" height="96" viewBox="0 0 97 96" fill="none" xmlns="http://www.w3.org/2000/svg">
<path d="M91.0898 42.8251C93.4227 46.0462 93.4227 50.4014 91.0898 53.6225L66.2833 87.8727C63.9396 91.1086 59.7759 92.4628 55.9772 91.2246L15.8754 78.1539C12.0874 76.9192 9.52392 73.3875 9.52392 69.4033L9.52392 27.0443C9.52392 23.0601 12.0874 19.5283 15.8754 18.2937L55.9772 5.22298C59.7759 3.98482 63.9396 5.33899 66.2833 8.57486L91.0898 42.8251Z" fill="#FFE86D"/>
<g filter="url(#filter0_d_91_438)">
<path d="M62.3436 76.0835C62.3436 75.2918 62.4686 74.5418 62.7186 73.8335C62.9894 73.1252 63.2394 72.6043 63.4686 72.271C63.6978 71.9377 64.0311 71.5106 64.4686 70.9897C65.6561 69.6356 67.0103 68.2606 68.5311 66.8647C70.0519 65.4481 71.3228 64.3335 72.3436 63.521C73.3853 62.6877 74.8957 61.5002 76.8749 59.9585C77.9165 59.1668 78.8228 58.4168 79.5936 57.7085C80.3853 56.9793 81.1561 56.1772 81.9061 55.3022C82.6769 54.4272 83.2603 53.521 83.6561 52.5835C84.0728 51.646 84.2811 50.7189 84.2811 49.8022C84.2811 47.6772 83.6561 46.0314 82.4061 44.8647C81.1769 43.6772 79.4374 43.0835 77.1874 43.0835C75.5415 43.0835 74.1457 43.5418 72.9999 44.4585C71.854 45.3752 71.0728 46.7085 70.6561 48.4585C70.4269 49.521 69.8853 50.271 69.0311 50.7085C68.1769 51.146 67.1874 51.2918 66.0624 51.146C64.9582 51.0418 64.1457 50.7397 63.6249 50.2397C63.104 49.7189 62.8436 48.9064 62.8436 47.8022C63.0103 45.2397 63.7811 43.021 65.1561 41.146C66.5519 39.2502 68.2915 37.8543 70.3749 36.9585C72.4582 36.0418 74.729 35.5835 77.1874 35.5835C79.3749 35.5835 81.3957 35.8543 83.2499 36.396C85.1249 36.9377 86.7811 37.7397 88.2186 38.8022C89.6769 39.8439 90.8124 41.2293 91.6249 42.9585C92.4582 44.6668 92.8749 46.6252 92.8749 48.8335C92.8749 50.4585 92.6457 51.9793 92.1874 53.396C91.7499 54.8127 91.0728 56.146 90.1561 57.396C89.2603 58.6252 88.3332 59.7189 87.3749 60.6772C86.4165 61.6147 85.2394 62.6564 83.8436 63.8022C83.0728 64.4481 81.9165 65.3543 80.3749 66.521C78.8332 67.6877 77.4686 68.7606 76.2811 69.7397C75.1144 70.6981 74.0728 71.646 73.1561 72.5835C73.0103 72.7085 72.9582 72.8543 72.9999 73.021C73.0415 73.1877 73.1769 73.271 73.4061 73.271H90.3749C92.1665 73.271 93.0624 74.5522 93.0624 77.1147C93.0624 79.6772 92.1665 80.9585 90.3749 80.9585H66.6249C64.9582 80.9585 63.8228 80.6252 63.2186 79.9585C62.6353 79.271 62.3436 77.9793 62.3436 76.0835Z" fill="white"/>
</g>
<defs>
<filter id="filter0_d_91_438" x="61.102" y="34.3418" width="35.6854" height="50.3416" filterUnits="userSpaceOnUse" color-interpolation-filters="sRGB">
<feFlood flood-opacity="0" result="BackgroundImageFix"/>
<feColorMatrix in="SourceAlpha" type="matrix" values="0 0 0 0 0 0 0 0 0 0 0 0 0 0 0 0 0 0 127 0" result="hardAlpha"/>
<feOffset dx="1.24166" dy="1.24166"/>
<feGaussianBlur stdDeviation="1.24166"/>
<feComposite in2="hardAlpha" operator="out"/>
<feColorMatrix type="matrix" values="0 0 0 0 0 0 0 0 0 0 0 0 0 0 0 0 0 0 0.25 0"/>
<feBlend mode="normal" in2="BackgroundImageFix" result="effect1_dropShadow_91_438"/>
<feBlend mode="normal" in="SourceGraphic" in2="effect1_dropShadow_91_438" result="shape"/>
</filter>
</defs>
</svg>
