<svg width="97" height="96" viewBox="0 0 97 96" fill="none" xmlns="http://www.w3.org/2000/svg">
<path d="M91.09 42.6215C93.4229 45.8426 93.4229 50.1978 91.09 53.4189L66.2835 87.6691C63.9399 90.905 59.7762 92.2591 55.9774 91.021L15.8757 77.9503C12.0877 76.7156 9.52417 73.1838 9.52417 69.1997L9.52417 26.8406C9.52417 22.8565 12.0877 19.3247 15.8757 18.0901L55.9774 5.01936C59.7762 3.7812 63.9399 5.13538 66.2835 8.37125L91.09 42.6215Z" fill="#FFCD82"/>
<g filter="url(#filter0_d_91_443)">
<path d="M61.8437 73.2549C61.3229 72.1507 61.25 71.1403 61.625 70.2236C62.0208 69.307 62.7812 68.6195 63.9062 68.1611C64.9271 67.7028 65.9062 67.5882 66.8437 67.8174C67.8021 68.0465 68.5312 68.6299 69.0312 69.5674C69.8229 71.1924 70.8125 72.3695 72 73.0986C73.1875 73.807 74.7083 74.1611 76.5625 74.1611C78.75 74.1611 80.5208 73.4528 81.875 72.0361C83.25 70.6195 83.9375 68.8486 83.9375 66.7236C83.9375 65.3486 83.6979 64.1611 83.2187 63.1611C82.7604 62.1403 82.1771 61.3486 81.4687 60.7861C80.7604 60.2028 79.8646 59.7445 78.7812 59.4111C77.6979 59.0778 76.6666 58.859 75.6875 58.7549C74.7083 58.6507 73.5937 58.5986 72.3437 58.5986C71.5729 58.5986 70.8958 58.3903 70.3125 57.9736C69.7291 57.557 69.3021 56.9632 69.0312 56.1924C68.3229 54.5465 68.5937 53.0674 69.8437 51.7549L75.3437 46.0049C76.2396 45.0465 77.0729 44.2549 77.8437 43.6299H64.9375C63.1458 43.6299 62.25 42.3486 62.25 39.7861C62.25 37.2236 63.1458 35.9424 64.9375 35.9424H87C88.8125 35.9424 89.6458 37.2236 89.5 39.7861C89.4583 40.9945 88.8854 42.1507 87.7812 43.2549L79.4375 51.6299C79.3125 51.7549 79.2812 51.9111 79.3437 52.0986C79.4271 52.2861 79.5729 52.3903 79.7812 52.4111C83.5937 52.807 86.6562 54.2445 88.9687 56.7236C91.2812 59.182 92.4375 62.2861 92.4375 66.0361C92.4166 69.0986 91.7083 71.807 90.3125 74.1611C88.9166 76.5153 87.0104 78.3278 84.5937 79.5986C82.1771 80.8486 79.4375 81.4736 76.375 81.4736C73.0625 81.4736 70.125 80.7965 67.5625 79.4424C65.0208 78.0882 63.1146 76.0257 61.8437 73.2549Z" fill="white"/>
</g>
<defs>
<filter id="filter0_d_91_443" x="59.8208" y="34.7007" width="36.3416" height="50.4979" filterUnits="userSpaceOnUse" color-interpolation-filters="sRGB">
<feFlood flood-opacity="0" result="BackgroundImageFix"/>
<feColorMatrix in="SourceAlpha" type="matrix" values="0 0 0 0 0 0 0 0 0 0 0 0 0 0 0 0 0 0 127 0" result="hardAlpha"/>
<feOffset dx="1.24166" dy="1.24166"/>
<feGaussianBlur stdDeviation="1.24166"/>
<feComposite in2="hardAlpha" operator="out"/>
<feColorMatrix type="matrix" values="0 0 0 0 0 0 0 0 0 0 0 0 0 0 0 0 0 0 0.25 0"/>
<feBlend mode="normal" in2="BackgroundImageFix" result="effect1_dropShadow_91_443"/>
<feBlend mode="normal" in="SourceGraphic" in2="effect1_dropShadow_91_443" result="shape"/>
</filter>
</defs>
</svg>
