<svg width="97" height="96" viewBox="0 0 97 96" fill="none" xmlns="http://www.w3.org/2000/svg">
<path d="M91.09 42.6215C93.4229 45.8426 93.4229 50.1978 91.09 53.4189L66.2835 87.6691C63.9399 90.905 59.7762 92.2591 55.9774 91.021L15.8757 77.9503C12.0877 76.7156 9.52417 73.1838 9.52417 69.1997L9.52417 26.8406C9.52417 22.8565 12.0877 19.3247 15.8757 18.0901L55.9774 5.01936C59.7762 3.7812 63.9399 5.13538 66.2835 8.37125L91.09 42.6215Z" fill="#BAECF3"/>
<g filter="url(#filter0_d_91_448)">
<path d="M59.5937 67.9424C59.5729 67.234 59.625 66.6403 59.75 66.1611C59.8958 65.682 60.1771 65.1299 60.5937 64.5049L76.8437 38.6924C77.6354 37.4632 78.4687 36.609 79.3437 36.1299C80.2187 35.6299 81.3541 35.3799 82.75 35.3799C86.2083 35.3799 87.9375 36.484 87.9375 38.6924V64.3174H90.5625C92.2291 64.3174 93.0625 65.5257 93.0625 67.9424C93.0625 70.3382 92.2291 71.5361 90.5625 71.5361H87.9375V78.3799C87.9375 80.3382 86.5312 81.3174 83.7187 81.3174C80.8854 81.3174 79.4687 80.3382 79.4687 78.3799V71.5361H62.8437C61.8229 71.5361 61.0416 71.2549 60.5 70.6924C59.9583 70.1299 59.6562 69.2132 59.5937 67.9424ZM68.6562 64.3174H79.4687V47.0361C78.9479 48.3903 78.375 49.5778 77.75 50.5986L71.5625 60.4736C70.5208 62.2028 69.5521 63.484 68.6562 64.3174Z" fill="white"/>
</g>
<defs>
<filter id="filter0_d_91_448" x="58.3208" y="34.1382" width="38.4666" height="50.9041" filterUnits="userSpaceOnUse" color-interpolation-filters="sRGB">
<feFlood flood-opacity="0" result="BackgroundImageFix"/>
<feColorMatrix in="SourceAlpha" type="matrix" values="0 0 0 0 0 0 0 0 0 0 0 0 0 0 0 0 0 0 127 0" result="hardAlpha"/>
<feOffset dx="1.24166" dy="1.24166"/>
<feGaussianBlur stdDeviation="1.24166"/>
<feComposite in2="hardAlpha" operator="out"/>
<feColorMatrix type="matrix" values="0 0 0 0 0 0 0 0 0 0 0 0 0 0 0 0 0 0 0.25 0"/>
<feBlend mode="normal" in2="BackgroundImageFix" result="effect1_dropShadow_91_448"/>
<feBlend mode="normal" in="SourceGraphic" in2="effect1_dropShadow_91_448" result="shape"/>
</filter>
</defs>
</svg>
