<svg width="161" height="119" viewBox="0 0 161 119" fill="none" xmlns="http://www.w3.org/2000/svg">
<path d="M114.921 55.797C116.647 58.1723 116.647 61.3887 114.921 63.764L80.005 111.821C78.2793 114.197 75.2204 115.191 72.428 114.283L15.9332 95.927C13.1409 95.0197 11.2503 92.4176 11.2503 89.4816L11.2503 30.0794C11.2503 27.1434 13.1409 24.5413 15.9332 23.634L72.428 5.27773C75.2203 4.37046 78.2793 5.36436 80.005 7.73964L114.921 55.797Z" fill="#FFE86D"/>
<g filter="url(#filter0_d_88_830)">
<path d="M24.7143 71.916C24.7143 67.2255 25.631 62.797 27.4643 58.6303C29.2977 54.4636 31.9286 50.8922 35.3572 47.916C38.8096 44.9398 42.7739 42.9279 47.25 41.8803C50.131 41.2375 52.2262 42.0351 53.5358 44.2732C54.2024 45.4637 54.3215 46.5113 53.8929 47.416C53.4881 48.297 52.631 48.916 51.3215 49.2732C48.9881 49.8922 46.8215 50.7256 44.8215 51.7732C42.8215 52.8208 40.9286 54.2494 39.1429 56.0589C37.381 57.8446 36.1072 59.8684 35.3215 62.1303C37.6786 60.3684 40.6072 59.4875 44.1072 59.4875C48.9405 59.4875 52.8572 61.1541 55.8572 64.4875C58.881 67.8208 60.3929 71.9875 60.3929 76.9875C60.3929 82.0351 58.7024 86.2851 55.3215 89.7374C51.9405 93.166 47.6905 94.8803 42.5715 94.8803C40 94.8803 37.6905 94.4755 35.6429 93.666C33.5953 92.8327 31.8929 91.7136 30.5358 90.3089C29.2024 88.8803 28.0834 87.1779 27.1786 85.2017C26.2977 83.2255 25.6667 81.1422 25.2858 78.9517C24.9048 76.7613 24.7143 74.416 24.7143 71.916ZM34.6429 77.416C34.6429 78.9874 34.9167 80.4874 35.4643 81.916C36.0358 83.3446 36.9286 84.5589 38.1429 85.5589C39.381 86.5589 40.8334 87.0589 42.5 87.0589C45.1429 87.0589 47.1667 86.0946 48.5715 84.166C49.9762 82.2136 50.6786 79.8922 50.6786 77.2017C50.6786 74.3208 50.0239 72.0708 48.7143 70.4517C47.4286 68.8089 45.4048 67.9875 42.6429 67.9875C40.0715 67.9875 38.0953 68.916 36.7143 70.7732C35.3334 72.6303 34.6429 74.8446 34.6429 77.416ZM67 76.2375C66.5238 73.7851 66.2858 71.2732 66.2858 68.7017C66.2858 66.1303 66.5238 63.6303 67 61.2017C67.5 58.7494 68.2858 56.4041 69.3572 54.166C70.4524 51.9041 71.7857 49.9279 73.3572 48.2375C74.9286 46.547 76.881 45.2017 79.2143 44.2017C81.5715 43.1779 84.1667 42.666 87 42.666C89.8334 42.666 92.4167 43.1779 94.75 44.2017C97.0834 45.2017 99.0357 46.547 100.607 48.2375C102.179 49.9041 103.5 51.8684 104.571 54.1303C105.667 56.3922 106.452 58.7494 106.929 61.2017C107.429 63.6303 107.679 66.1303 107.679 68.7017C107.679 71.2732 107.429 73.7851 106.929 76.2375C106.452 78.666 105.667 81.0113 104.571 83.2732C103.5 85.5351 102.179 87.5113 100.607 89.2017C99.0357 90.8684 97.0834 92.2136 94.75 93.2374C92.4167 94.2374 89.8334 94.7374 87 94.7374C84.1667 94.7374 81.5715 94.2374 79.2143 93.2374C76.881 92.2136 74.9286 90.8565 73.3572 89.166C71.7857 87.4755 70.4524 85.5113 69.3572 83.2732C68.2858 81.0113 67.5 78.666 67 76.2375ZM76.2857 68.7017C76.2857 69.916 76.3453 71.1184 76.4643 72.3089C76.5834 73.4994 76.7857 74.7851 77.0715 76.166C77.3572 77.547 77.7619 78.8208 78.2857 79.9874C78.8334 81.1541 79.4881 82.2255 80.25 83.2017C81.0119 84.1779 81.9643 84.9517 83.1072 85.5232C84.2738 86.0708 85.5715 86.3446 87 86.3446C88.4286 86.3446 89.7143 86.0708 90.8572 85.5232C92 84.9517 92.9524 84.1779 93.7143 83.2017C94.4762 82.2255 95.1191 81.1541 95.6429 79.9874C96.1905 78.8208 96.6072 77.547 96.8929 76.166C97.1786 74.7851 97.381 73.4994 97.5 72.3089C97.6191 71.0946 97.6786 69.8922 97.6786 68.7017C97.6786 67.2255 97.5953 65.7732 97.4286 64.3446C97.2619 62.8922 96.9286 61.3446 96.4286 59.7017C95.9524 58.0351 95.3334 56.5946 94.5715 55.3803C93.8334 54.1422 92.8096 53.1184 91.5 52.3089C90.1905 51.4994 88.6905 51.0946 87 51.0946C85.2857 51.0946 83.7738 51.4994 82.4643 52.3089C81.1548 53.1184 80.1191 54.1422 79.3572 55.3803C78.5953 56.5946 77.9762 58.0351 77.5 59.7017C77.0238 61.3446 76.7024 62.8922 76.5357 64.3446C76.3691 65.7732 76.2857 67.2255 76.2857 68.7017ZM113.214 54.3089C113.214 52.1184 113.536 50.2017 114.179 48.5589C114.821 46.8922 115.917 45.5351 117.464 44.4875C119.012 43.416 120.952 42.8803 123.286 42.8803C126.714 42.8803 129.25 43.9517 130.893 46.0946C132.56 48.2137 133.393 50.9517 133.393 54.3089C133.393 57.666 132.56 60.4041 130.893 62.5232C129.25 64.6422 126.714 65.7017 123.286 65.7017C119.857 65.7017 117.321 64.6541 115.679 62.5589C114.036 60.4398 113.214 57.6898 113.214 54.3089ZM120.5 94.666C119.476 94.4993 118.81 94.0708 118.5 93.3803C118.19 92.666 118.274 91.8565 118.75 90.9517L144.429 45.666C144.881 44.666 145.464 43.9637 146.179 43.5589C146.917 43.1303 147.94 42.9279 149.25 42.9517C150.464 42.9994 151.345 43.416 151.893 44.2017C152.44 44.9637 152.44 45.916 151.893 47.0589L126.214 92.3446C125.19 94.416 123.286 95.1898 120.5 94.666ZM120.286 54.3089C120.286 54.9756 120.31 55.5351 120.357 55.9875C120.405 56.416 120.512 56.9398 120.679 57.5589C120.845 58.1779 121.143 58.6541 121.571 58.9875C122.024 59.3208 122.595 59.4875 123.286 59.4875C123.976 59.4875 124.536 59.3208 124.964 58.9875C125.417 58.6541 125.726 58.1779 125.893 57.5589C126.06 56.9398 126.167 56.416 126.214 55.9875C126.262 55.5351 126.286 54.9756 126.286 54.3089C126.286 53.7613 126.274 53.3327 126.25 53.0232C126.25 52.6898 126.19 52.2494 126.071 51.7017C125.976 51.1303 125.833 50.6898 125.643 50.3803C125.452 50.047 125.155 49.7494 124.75 49.4875C124.345 49.2256 123.857 49.0946 123.286 49.0946C122.714 49.0946 122.226 49.2256 121.821 49.4875C121.417 49.7494 121.119 50.047 120.929 50.3803C120.738 50.6898 120.583 51.1303 120.464 51.7017C120.369 52.2494 120.31 52.6898 120.286 53.0232C120.286 53.3327 120.286 53.7613 120.286 54.3089ZM139.714 91.7374C138.071 89.6184 137.25 86.8684 137.25 83.4874C137.25 80.1065 138.071 77.3803 139.714 75.3089C141.381 73.2136 143.929 72.166 147.357 72.166C150.786 72.166 153.321 73.2136 154.964 75.3089C156.631 77.4041 157.464 80.1303 157.464 83.4874C157.464 86.8446 156.631 89.5827 154.964 91.7017C153.321 93.8208 150.786 94.8803 147.357 94.8803C143.929 94.8803 141.381 93.8327 139.714 91.7374ZM144.357 83.4874C144.357 84.0113 144.369 84.4517 144.393 84.8089C144.417 85.166 144.476 85.6184 144.571 86.166C144.69 86.6898 144.845 87.1184 145.036 87.4517C145.226 87.7613 145.524 88.047 145.929 88.3089C146.333 88.547 146.81 88.666 147.357 88.666C147.905 88.666 148.381 88.547 148.786 88.3089C149.19 88.047 149.488 87.7613 149.679 87.4517C149.869 87.1184 150.012 86.6898 150.107 86.166C150.226 85.6184 150.298 85.166 150.321 84.8089C150.345 84.4517 150.357 84.0113 150.357 83.4874C150.357 82.8208 150.333 82.2732 150.286 81.8446C150.238 81.3922 150.131 80.8565 149.964 80.2374C149.798 79.6184 149.488 79.1422 149.036 78.8089C148.607 78.4755 148.048 78.3089 147.357 78.3089C146.881 78.3089 146.464 78.3922 146.107 78.5589C145.75 78.7017 145.464 78.9398 145.25 79.2732C145.036 79.5827 144.857 79.8803 144.714 80.166C144.595 80.4517 144.512 80.8327 144.464 81.3089C144.417 81.7851 144.381 82.1541 144.357 82.416C144.357 82.6779 144.357 83.0351 144.357 83.4874Z" fill="white"/>
</g>
<defs>
<filter id="filter0_d_88_830" x="23.8001" y="40.0017" width="136.407" height="58.1933" filterUnits="userSpaceOnUse" color-interpolation-filters="sRGB">
<feFlood flood-opacity="0" result="BackgroundImageFix"/>
<feColorMatrix in="SourceAlpha" type="matrix" values="0 0 0 0 0 0 0 0 0 0 0 0 0 0 0 0 0 0 127 0" result="hardAlpha"/>
<feOffset dx="0.914285" dy="0.914285"/>
<feGaussianBlur stdDeviation="0.914285"/>
<feComposite in2="hardAlpha" operator="out"/>
<feColorMatrix type="matrix" values="0 0 0 0 0 0 0 0 0 0 0 0 0 0 0 0 0 0 0.25 0"/>
<feBlend mode="normal" in2="BackgroundImageFix" result="effect1_dropShadow_88_830"/>
<feBlend mode="normal" in="SourceGraphic" in2="effect1_dropShadow_88_830" result="shape"/>
</filter>
</defs>
</svg>
