<svg width="161" height="119" viewBox="0 0 161 119" fill="none" xmlns="http://www.w3.org/2000/svg">
<path d="M54.924 3.7672C57.2993 2.04146 60.5156 2.04146 62.8909 3.7672L110.948 38.6829C113.324 40.4087 114.318 43.4676 113.41 46.2599L95.0539 102.755C94.1467 105.547 91.5446 107.438 88.6086 107.438L29.2064 107.438C26.2704 107.438 23.6683 105.547 22.761 102.755L4.40468 46.2599C3.49741 43.4676 4.49132 40.4087 6.86659 38.683L54.924 3.7672Z" fill="#D3EC89"/>
<g filter="url(#filter0_d_88_836)">
<path d="M31.4643 85.5946C30.8691 84.3327 30.7858 83.1779 31.2143 82.1303C31.6667 81.0827 32.5358 80.297 33.8215 79.7732C34.9881 79.2494 36.1072 79.1184 37.1786 79.3803C38.2739 79.6422 39.1072 80.3089 39.6786 81.3803C40.5834 83.2374 41.7143 84.5827 43.0715 85.416C44.4286 86.2255 46.1667 86.6303 48.2858 86.6303C50.7858 86.6303 52.8096 85.8208 54.3572 84.2017C55.9286 82.5827 56.7143 80.5589 56.7143 78.1303C56.7143 76.5589 56.4405 75.2017 55.8929 74.0589C55.3691 72.8922 54.7024 71.9875 53.8929 71.3446C53.0834 70.6779 52.0596 70.1541 50.8215 69.7732C49.5834 69.3922 48.4048 69.1422 47.2858 69.0232C46.1667 68.9041 44.8929 68.8446 43.4643 68.8446C42.5834 68.8446 41.8096 68.6065 41.1429 68.1303C40.4762 67.6541 39.9881 66.9755 39.6786 66.0946C38.8691 64.2136 39.1786 62.5232 40.6072 61.0232L46.8929 54.4517C47.9167 53.3565 48.8691 52.4517 49.75 51.7375H35C32.9524 51.7375 31.9286 50.2732 31.9286 47.3446C31.9286 44.416 32.9524 42.9517 35 42.9517H60.2143C62.2857 42.9517 63.2381 44.416 63.0715 47.3446C63.0238 48.7256 62.3691 50.047 61.1072 51.3089L51.5715 60.8803C51.4286 61.0232 51.3929 61.2017 51.4643 61.416C51.5596 61.6303 51.7262 61.7494 51.9643 61.7732C56.3215 62.2256 59.8215 63.8684 62.4643 66.7017C65.1072 69.5113 66.4286 73.0589 66.4286 77.3446C66.4048 80.8446 65.5953 83.9398 64 86.6303C62.4048 89.3208 60.2262 91.3922 57.4643 92.8446C54.7024 94.2732 51.5715 94.9874 48.0715 94.9874C44.2858 94.9874 40.9286 94.2136 38 92.666C35.0953 91.1184 32.9167 88.7613 31.4643 85.5946ZM72.7857 85.5232C71.7381 83.047 72.4762 81.2255 75 80.0589C77.7143 78.7494 79.7381 79.2136 81.0715 81.4517C82.1667 83.2613 83.3572 84.5827 84.6429 85.416C85.9524 86.2255 87.631 86.6303 89.6786 86.6303C92.1786 86.6303 94.1548 85.797 95.6072 84.1303C97.0834 82.4398 97.8453 80.3446 97.8929 77.8446C97.8929 75.5827 97.4286 73.7255 96.5 72.2732C95.5953 70.8208 94.3572 69.8208 92.7857 69.2732C91.2143 68.7017 89.381 68.3565 87.2857 68.2375C85.1905 68.0946 82.9881 68.2017 80.6786 68.5589C78.4881 68.797 76.7381 68.5113 75.4286 67.7017C74.1191 66.8922 73.4643 65.4041 73.4643 63.2375V49.6303C73.4643 47.1303 73.9048 45.3922 74.7857 44.416C75.6667 43.4398 77.1786 42.9517 79.3215 42.9517H100.429C102.476 42.9517 103.5 44.416 103.5 47.3446C103.5 50.2732 102.476 51.7375 100.429 51.7375H84.5C83.9286 51.7375 83.5476 51.8327 83.3572 52.0232C83.1905 52.2137 83.1072 52.6065 83.1072 53.2017V58.3089C83.1072 59.3089 83.2024 59.9756 83.3929 60.3089C83.6072 60.6184 84.1429 60.7613 85 60.7375C87.5715 60.5946 89.9524 60.6541 92.1429 60.916C94.3334 61.1541 96.3929 61.6541 98.3215 62.416C100.274 63.1779 101.917 64.2017 103.25 65.4875C104.607 66.7494 105.679 68.3922 106.464 70.416C107.25 72.4398 107.631 74.7732 107.607 77.416C107.536 82.7017 105.821 86.9517 102.464 90.166C99.131 93.3803 94.8215 94.9874 89.5357 94.9874C85.7262 94.9874 82.3453 94.2017 79.3929 92.6303C76.4405 91.0589 74.2381 88.6898 72.7857 85.5232ZM113.214 54.3089C113.214 52.1184 113.536 50.2017 114.179 48.5589C114.821 46.8922 115.917 45.5351 117.464 44.4875C119.012 43.416 120.952 42.8803 123.286 42.8803C126.714 42.8803 129.25 43.9517 130.893 46.0946C132.56 48.2137 133.393 50.9517 133.393 54.3089C133.393 57.666 132.56 60.4041 130.893 62.5232C129.25 64.6422 126.714 65.7017 123.286 65.7017C119.857 65.7017 117.321 64.6541 115.679 62.5589C114.036 60.4398 113.214 57.6898 113.214 54.3089ZM120.5 94.666C119.476 94.4993 118.81 94.0708 118.5 93.3803C118.19 92.666 118.274 91.8565 118.75 90.9517L144.429 45.666C144.881 44.666 145.464 43.9637 146.179 43.5589C146.917 43.1303 147.94 42.9279 149.25 42.9517C150.464 42.9994 151.345 43.416 151.893 44.2017C152.44 44.9637 152.44 45.916 151.893 47.0589L126.214 92.3446C125.19 94.416 123.286 95.1898 120.5 94.666ZM120.286 54.3089C120.286 54.9756 120.31 55.5351 120.357 55.9875C120.405 56.416 120.512 56.9398 120.679 57.5589C120.845 58.1779 121.143 58.6541 121.571 58.9875C122.024 59.3208 122.595 59.4875 123.286 59.4875C123.976 59.4875 124.536 59.3208 124.964 58.9875C125.417 58.6541 125.726 58.1779 125.893 57.5589C126.06 56.9398 126.167 56.416 126.214 55.9875C126.262 55.5351 126.286 54.9756 126.286 54.3089C126.286 53.7613 126.274 53.3327 126.25 53.0232C126.25 52.6898 126.19 52.2494 126.071 51.7017C125.976 51.1303 125.833 50.6898 125.643 50.3803C125.452 50.047 125.155 49.7494 124.75 49.4875C124.345 49.2256 123.857 49.0946 123.286 49.0946C122.714 49.0946 122.226 49.2256 121.821 49.4875C121.417 49.7494 121.119 50.047 120.929 50.3803C120.738 50.6898 120.583 51.1303 120.464 51.7017C120.369 52.2494 120.31 52.6898 120.286 53.0232C120.286 53.3327 120.286 53.7613 120.286 54.3089ZM139.714 91.7374C138.071 89.6184 137.25 86.8684 137.25 83.4874C137.25 80.1065 138.071 77.3803 139.714 75.3089C141.381 73.2136 143.929 72.166 147.357 72.166C150.786 72.166 153.321 73.2136 154.964 75.3089C156.631 77.4041 157.464 80.1303 157.464 83.4874C157.464 86.8446 156.631 89.5827 154.964 91.7017C153.321 93.8208 150.786 94.8803 147.357 94.8803C143.929 94.8803 141.381 93.8327 139.714 91.7374ZM144.357 83.4874C144.357 84.0113 144.369 84.4517 144.393 84.8089C144.417 85.166 144.476 85.6184 144.571 86.166C144.69 86.6898 144.845 87.1184 145.036 87.4517C145.226 87.7613 145.524 88.047 145.929 88.3089C146.333 88.547 146.81 88.666 147.357 88.666C147.905 88.666 148.381 88.547 148.786 88.3089C149.19 88.047 149.488 87.7613 149.679 87.4517C149.869 87.1184 150.012 86.6898 150.107 86.166C150.226 85.6184 150.298 85.166 150.321 84.8089C150.345 84.4517 150.357 84.0113 150.357 83.4874C150.357 82.8208 150.333 82.2732 150.286 81.8446C150.238 81.3922 150.131 80.8565 149.964 80.2374C149.798 79.6184 149.488 79.1422 149.036 78.8089C148.607 78.4755 148.048 78.3089 147.357 78.3089C146.881 78.3089 146.464 78.3922 146.107 78.5589C145.75 78.7017 145.464 78.9398 145.25 79.2732C145.036 79.5827 144.857 79.8803 144.714 80.166C144.595 80.4517 144.512 80.8327 144.464 81.3089C144.417 81.7851 144.381 82.1541 144.357 82.416C144.357 82.6779 144.357 83.0351 144.357 83.4874Z" fill="white"/>
</g>
<defs>
<filter id="filter0_d_88_836" x="29.6572" y="41.9656" width="130.55" height="56.2294" filterUnits="userSpaceOnUse" color-interpolation-filters="sRGB">
<feFlood flood-opacity="0" result="BackgroundImageFix"/>
<feColorMatrix in="SourceAlpha" type="matrix" values="0 0 0 0 0 0 0 0 0 0 0 0 0 0 0 0 0 0 127 0" result="hardAlpha"/>
<feOffset dx="0.914285" dy="0.914285"/>
<feGaussianBlur stdDeviation="0.914285"/>
<feComposite in2="hardAlpha" operator="out"/>
<feColorMatrix type="matrix" values="0 0 0 0 0 0 0 0 0 0 0 0 0 0 0 0 0 0 0.25 0"/>
<feBlend mode="normal" in2="BackgroundImageFix" result="effect1_dropShadow_88_836"/>
<feBlend mode="normal" in="SourceGraphic" in2="effect1_dropShadow_88_836" result="shape"/>
</filter>
</defs>
</svg>
