<svg width="161" height="119" viewBox="0 0 161 119" fill="none" xmlns="http://www.w3.org/2000/svg">
<path d="M2.8944 63.7635C1.16866 61.3882 1.16866 58.1719 2.8944 55.7966L37.8101 7.73918C39.5359 5.36391 42.5948 4.37 45.3871 5.27727L101.882 23.6336C104.674 24.5408 106.565 27.1429 106.565 30.0789L106.565 89.4811C106.565 92.4171 104.674 95.0192 101.882 95.9265L45.3871 114.283C42.5948 115.19 39.5359 114.196 37.8102 111.821L2.8944 63.7635Z" fill="#BAECF3"/>
<g filter="url(#filter0_d_88_842)">
<path d="M72.7855 85.5232C71.7379 83.047 72.476 81.2255 74.9998 80.0589C77.7141 78.7494 79.7379 79.2136 81.0712 81.4517C82.1665 83.2613 83.3569 84.5827 84.6426 85.416C85.9522 86.2255 87.6307 86.6303 89.6784 86.6303C92.1784 86.6303 94.1545 85.797 95.6069 84.1303C97.0831 82.4398 97.845 80.3446 97.8926 77.8446C97.8926 75.5827 97.4284 73.7255 96.4998 72.2732C95.595 70.8208 94.3569 69.8208 92.7855 69.2732C91.2141 68.7017 89.3807 68.3565 87.2855 68.2375C85.1903 68.0946 82.9879 68.2017 80.6784 68.5589C78.4879 68.797 76.7379 68.5113 75.4284 67.7017C74.1188 66.8922 73.4641 65.4041 73.4641 63.2375V49.6303C73.4641 47.1303 73.9046 45.3922 74.7855 44.416C75.6665 43.4398 77.1784 42.9517 79.3212 42.9517H100.428C102.476 42.9517 103.5 44.416 103.5 47.3446C103.5 50.2732 102.476 51.7375 100.428 51.7375H84.4998C83.9284 51.7375 83.5474 51.8327 83.3569 52.0232C83.1903 52.2137 83.1069 52.6065 83.1069 53.2017V58.3089C83.1069 59.3089 83.2022 59.9756 83.3926 60.3089C83.6069 60.6184 84.1426 60.7613 84.9998 60.7375C87.5712 60.5946 89.9522 60.6541 92.1426 60.916C94.3331 61.1541 96.3926 61.6541 98.3212 62.416C100.274 63.1779 101.916 64.2017 103.25 65.4875C104.607 66.7494 105.678 68.3922 106.464 70.416C107.25 72.4398 107.631 74.7732 107.607 77.416C107.535 82.7017 105.821 86.9517 102.464 90.166C99.1307 93.3803 94.8212 94.9874 89.5355 94.9874C85.726 94.9874 82.345 94.2017 79.3926 92.6303C76.4403 91.0589 74.2379 88.6898 72.7855 85.5232ZM113.214 54.3089C113.214 52.1184 113.535 50.2017 114.178 48.5589C114.821 46.8922 115.916 45.5351 117.464 44.4875C119.012 43.416 120.952 42.8803 123.285 42.8803C126.714 42.8803 129.25 43.9517 130.893 46.0946C132.559 48.2137 133.393 50.9517 133.393 54.3089C133.393 57.666 132.559 60.4041 130.893 62.5232C129.25 64.6422 126.714 65.7017 123.285 65.7017C119.857 65.7017 117.321 64.6541 115.678 62.5589C114.035 60.4398 113.214 57.6898 113.214 54.3089ZM120.5 94.666C119.476 94.4993 118.809 94.0708 118.5 93.3803C118.19 92.666 118.274 91.8565 118.75 90.9517L144.428 45.666C144.881 44.666 145.464 43.9637 146.178 43.5589C146.916 43.1303 147.94 42.9279 149.25 42.9517C150.464 42.9994 151.345 43.416 151.893 44.2017C152.44 44.9637 152.44 45.916 151.893 47.0589L126.214 92.3446C125.19 94.416 123.285 95.1898 120.5 94.666ZM120.285 54.3089C120.285 54.9756 120.309 55.5351 120.357 55.9875C120.405 56.416 120.512 56.9398 120.678 57.5589C120.845 58.1779 121.143 58.6541 121.571 58.9875C122.024 59.3208 122.595 59.4875 123.285 59.4875C123.976 59.4875 124.535 59.3208 124.964 58.9875C125.416 58.6541 125.726 58.1779 125.893 57.5589C126.059 56.9398 126.166 56.416 126.214 55.9875C126.262 55.5351 126.285 54.9756 126.285 54.3089C126.285 53.7613 126.274 53.3327 126.25 53.0232C126.25 52.6898 126.19 52.2494 126.071 51.7017C125.976 51.1303 125.833 50.6898 125.643 50.3803C125.452 50.047 125.155 49.7494 124.75 49.4875C124.345 49.2256 123.857 49.0946 123.285 49.0946C122.714 49.0946 122.226 49.2256 121.821 49.4875C121.416 49.7494 121.119 50.047 120.928 50.3803C120.738 50.6898 120.583 51.1303 120.464 51.7017C120.369 52.2494 120.309 52.6898 120.285 53.0232C120.285 53.3327 120.285 53.7613 120.285 54.3089ZM139.714 91.7374C138.071 89.6184 137.25 86.8684 137.25 83.4874C137.25 80.1065 138.071 77.3803 139.714 75.3089C141.381 73.2136 143.928 72.166 147.357 72.166C150.785 72.166 153.321 73.2136 154.964 75.3089C156.631 77.4041 157.464 80.1303 157.464 83.4874C157.464 86.8446 156.631 89.5827 154.964 91.7017C153.321 93.8208 150.785 94.8803 147.357 94.8803C143.928 94.8803 141.381 93.8327 139.714 91.7374ZM144.357 83.4874C144.357 84.0113 144.369 84.4517 144.393 84.8089C144.416 85.166 144.476 85.6184 144.571 86.166C144.69 86.6898 144.845 87.1184 145.035 87.4517C145.226 87.7613 145.524 88.047 145.928 88.3089C146.333 88.547 146.809 88.666 147.357 88.666C147.905 88.666 148.381 88.547 148.785 88.3089C149.19 88.047 149.488 87.7613 149.678 87.4517C149.869 87.1184 150.012 86.6898 150.107 86.166C150.226 85.6184 150.297 85.166 150.321 84.8089C150.345 84.4517 150.357 84.0113 150.357 83.4874C150.357 82.8208 150.333 82.2732 150.285 81.8446C150.238 81.3922 150.131 80.8565 149.964 80.2374C149.797 79.6184 149.488 79.1422 149.035 78.8089C148.607 78.4755 148.047 78.3089 147.357 78.3089C146.881 78.3089 146.464 78.3922 146.107 78.5589C145.75 78.7017 145.464 78.9398 145.25 79.2732C145.035 79.5827 144.857 79.8803 144.714 80.166C144.595 80.4517 144.512 80.8327 144.464 81.3089C144.416 81.7851 144.381 82.1541 144.357 82.416C144.357 82.6779 144.357 83.0351 144.357 83.4874Z" fill="white"/>
</g>
<defs>
<filter id="filter0_d_88_842" x="70.2998" y="41.9656" width="89.9071" height="56.2294" filterUnits="userSpaceOnUse" color-interpolation-filters="sRGB">
<feFlood flood-opacity="0" result="BackgroundImageFix"/>
<feColorMatrix in="SourceAlpha" type="matrix" values="0 0 0 0 0 0 0 0 0 0 0 0 0 0 0 0 0 0 127 0" result="hardAlpha"/>
<feOffset dx="0.914285" dy="0.914285"/>
<feGaussianBlur stdDeviation="0.914285"/>
<feComposite in2="hardAlpha" operator="out"/>
<feColorMatrix type="matrix" values="0 0 0 0 0 0 0 0 0 0 0 0 0 0 0 0 0 0 0.25 0"/>
<feBlend mode="normal" in2="BackgroundImageFix" result="effect1_dropShadow_88_842"/>
<feBlend mode="normal" in="SourceGraphic" in2="effect1_dropShadow_88_842" result="shape"/>
</filter>
</defs>
</svg>
